<?xml version="1.0" encoding="utf-8"?>
<!-- Generator: Adobe Illustrator 24.1.1, SVG Export Plug-In . SVG Version: 6.00 Build 0)  -->
<svg version="1.1" id="Camada_1" xmlns="http://www.w3.org/2000/svg" xmlns:xlink="http://www.w3.org/1999/xlink" x="0px" y="0px"
	 viewBox="0 0 500 500" style="enable-background:new 0 0 500 500;" xml:space="preserve">
<style type="text/css">
	.st0{display:none;}
	.st1{fill:none;stroke:#CA351E;stroke-width:2.3;stroke-miterlimit:10;}
	.st2{fill:url(#SVGID_1_);}
</style>
<g id="Camada_3" class="st0">
</g>
<g id="Camada_1_1_">
</g>
<g id="Camada_4">
	<path class="st1" d="M279.06,366.3c-6.12-10.02,2.4-23.16-3.75-33.14c-2.78-4.5-67.19-126.85-73.5-121.91
		c-1.56,1.22,17.35,14.22,15.23,13.92c-1.16-0.17-2.1-1.44-3.14-2.2c-9.05-14.53-46.93-57.47,23.53,35.22
		c5.74,7.55-1.9,4.96-5.12-1.54c-13.31-26.91-16.32-4.58-29.17-31.83c-0.81-1.7,7.95-2.9,7-4.5c-9.61-4.51,14.62,75.58,10.32,66.08
		c-5.93-13.12-11.44-26.52-17.06-39.85c-0.88-2.1-1.22-5.57-3.75-5.21c-2.48,0.36-2.95,3.86-3.82,6.23
		c-6.45,17.72-11,36.04-17.37,53.81c-4.58,11.05-5.65,23.05-9.97,34.14c-4.22,10.83,0.25,14.83,8.58,16.39
		c5.66,1.06,11.67-1.68,17.19,0.43c7.64,8.66,1.4,17-3.34,24.55c-9.26,14.73-18.53,29.45-27.89,44.1
		c-2.29,3.57-3.96,7.18-5.05,11.21c-9.4,14.05-17.74,29.3-28.59,41.69c-6.84,7.82-51.61,4.41-60.53,9.86
		c-5.51-0.89,31.82,2.73,33-0.5c10.45-28.56,27.1-53.14,43-78.18c3.4-4.94,5.39-10.96,9.43-15.47c-3.25,3.24-4.8,7.73-7.17,11.63
		c-8.52,14.25-17.67,27.99-26.4,42.06c-4.57,7.37-9.71,15.22-18.99,14.28c-16.1,11.36-33.04,12.62-50.18,11.15
		c-4.13-20.78,3.64-39.67,12.3-58.44c8.99-11.73,17.96-23.47,26.95-35.2c25.31-26.45,46.41-57.43,70.75-84.91
		c3.75-4.25,4.92-8.92,3.71-14.22c4.91-16.08,9.82-32.16,14.73-48.24c2.6-10.13,10.71-19.35,6.64-30.6
		c0.36-0.94,0.61-1.92,0.73-2.92c0.95-11.94,5.38-21.94,14.4-29.42c9.31,0.04,10.38,9.97,14.79,15.9c1.45,4.4,0.86,9.52,2.56,13.84
		c1.09,4,1.84,8.1,1.04,12.52c-4.55,7.12-4.52,11.49,3.95,12.31c2.75,0.27,5.36,2.47,7.97,3.93c9.28,8.45,13.3,21.38,19.66,32.33
		c6.61,15.98,13.78,31.61,19.4,48.2c2.26,4.14,4.1,8.52,4.44,13.67c0.42,16.55,5.64,30.57,14.09,42.88
		c3.51,2.48-31.92-54.32-30.93-48.58"/>
	<path class="st1" d="M303.75,448.26c2.29,1.74,3.32,4.35,4.84,6.64"/>
	<path class="st1" d="M161.06,367.92c2.08-13.41,4.14-26.83,6.22-40.25c0.31-2.03,0.36-4.21,1.17-6.04
		c1.58-3.62,3.62-7.06,5.48-10.56c2.45,2.71,5.12,5.26,7.34,8.15c13.62,17.63,27.15,35.34,40.71,53.01
		c-1.17,2.53-2.34,5.05-3.51,7.58c-15.69,8.5-31.32,8.73-47.55,0.9C164.89,377.81,161.43,374.36,161.06,367.92z"/>
	<path class="st1" d="M179.27,350.55c2.08-13.41,4.14-26.83,6.22-40.25c0.31-2.03,0.36-4.21,1.17-6.04
		c1.58-3.62,3.62-7.06,5.48-10.56c2.45,2.71,5.12,5.26,7.34,8.15c13.62,17.63,27.15,35.34,40.71,53.01
		c-1.17,2.53-2.34,5.05-3.51,7.58c-15.69,8.5-31.32,8.73-47.55,0.9C183.1,360.43,179.63,356.99,179.27,350.55z"/>
	<path class="st1" d="M198.33,353.77c2.08-13.41,4.14-26.83,6.22-40.25c0.31-2.03,0.36-4.21,1.17-6.04
		c1.58-3.62,3.62-7.06,5.48-10.56c2.45,2.71,5.12,5.26,7.34,8.15c13.62,17.63,27.15,35.34,40.71,53.01
		c-1.17,2.53-2.34,5.05-3.51,7.58c-15.69,8.5-31.32,8.73-47.55,0.9C202.16,363.65,198.68,360.2,198.33,353.77z"/>
	<path class="st1" d="M163.61,365.43c2.34,3.66,3.74,7.92,9.9,7.53c3.01-0.19,6.45,1.84,9.27,3.56c12.67,7.67,24.1,2.78,35.52-2.95
		c0.93-0.47,1.93-0.81,2.91-1.21c-0.06,1.65-0.13,3.31-0.19,4.97c-1.65,4.68-8.96,6.97-10.61,11.66
		c-8.31,5.8-8.74,17.43-20.21,18.31c-8.96,9.52-19.53,4.14-29.45,2.53c-1.43-0.23-3.19-5.29-2.87-7.87
		C159.41,389.73,161.63,377.59,163.61,365.43z"/>
	<path class="st1" d="M161.22,415.09c8.97-3.56,17.92-7.16,26.95-10.56c0.44-0.17,1.53,1.3,2.31,2.01
		c-20.05,20.08-40.1,40.18-60.19,60.23c-2.01,2.01-4.39,3.69-6.6,5.53c0.96-3.23,1.06-7.11,3.04-9.56
		c9.52-11.86,19.44-23.42,29.44-34.89C159.46,424.05,163.26,420.76,161.22,415.09z"/>
	<path class="st1" d="M150.91,337.92c9.84,4.13,10.35,4.75,4.21,10.49c-14.35,13.39-29.08,26.44-43.74,39.57
		c-6.12,5.48-12.32,10.87-18.73,16.08c-1.68,1.37-4.19,1.94-6.32,2.9c15.01-16.02,30.05-32,44.98-48.06
		c3.99-4.28,7.62-8.81,11.43-13.23C145.47,343.07,148.19,340.49,150.91,337.92z"/>
	<path class="st1" d="M62.92,431.41c-2.51,14.31-5.01,28.63-7.51,42.95c-2.36-5.29-4.83-10.55-7-15.89
		c-0.55-1.33-0.68-3.24,0.01-4.36C53.1,446.46,58.06,438.96,62.92,431.41z"/>
	<path class="st1" d="M336.4,266.33c-0.22,1.63-0.44,3.24-0.66,4.87c-0.99,0.71-2.04,1.33-3.13,1.89
		c-21.69,7.4-42.5,17.05-64.4,23.86c-5.71,1.78-12.19,5.29-16.25-2.95c-1.45-4.51-1.17-9.14,0.14-13.47
		c7.4-24.5,12.54-49.64,21.61-73.63c2.23-5.92,3.09-11.92,4.57-17.89c0.51-3.64,2.61-6.28,5.53-8.38c8.78-2.35,10.61,5,13.4,9.93
		c13.21,23.33,26.02,46.87,38.71,70.47c0.52,1.12,0.82,2.28,0.84,3.51C336.67,265.14,336.54,265.74,336.4,266.33z"/>
	<path class="st1" d="M405.64,236.31c-16.65,7.27-33.3,14.56-49.96,21.8c-6.4,2.78-12.84,5.48-19.27,8.21l0.06-0.09
		c-2.09-4.65-0.51-9.24,1.58-13.07c10.92-19.96,21.17-40.28,33.05-59.73c1.74-2.83,3.99-5.33,7.27-6.61
		c7.14-0.97,9.14,4.7,11.52,9.19c4.01,7.59,7.97,15.24,11.38,23.1c1.69,3.92,4.38,6.46,7.36,9.08
		C409.44,231.55,408.84,234.39,405.64,236.31z"/>
	<path class="st1" d="M409.99,128.76c5.77,5.58,12.6,10.51,12.38,19.7c1,4.26-1.48,7.26-4.29,9.74
		c-11.43,10.11-21.44,21.98-36.19,28c-0.64-0.24-1.26-0.48-1.9-0.72c-1.04-0.98-1.75-2.12-2.19-3.46
		c-2.75-17.87-0.83-35.28,5.43-52.26C392,125.82,400.78,121.83,409.99,128.76z"/>
	<path class="st1" d="M256.52,340.12c0.6-0.32,1.23-0.56,1.91-0.67c13.1-2.43,26.18-4.94,39.32-7.13c1.47-0.24,3.26,1.42,4.91,2.2
		l-26.34,20.31c-0.69,0.53-1.22,1.21-1.69,1.93c-2,3.13-5.01,4.88-8.8,5.61c-11.21,1.16-22.52,3.78-33.26-2.07
		c-1.27-0.55-2.01-1.5-2.22-2.86C234.64,345.19,247.2,345.01,256.52,340.12z"/>
	<path class="st1" d="M382.87,185.27c7.39-7.04,14.73-14.15,22.19-21.13c5.69-5.31,11.52-10.46,17.3-15.67
		c1.04,3.71,3.16,7.49,2.91,11.12c-0.55,8.22-2.23,16.36-3.47,24.55c-0.13,2.36-1.81,3.15-3.8,3.62c-7.49-0.43-14.95-1-22.47,0.31
		C391.12,188.81,386.27,189.74,382.87,185.27z"/>
	<path class="st1" d="M455.07,88.45c-2.1,2.07-4.21,4.14-6.31,6.23c-7.65,3.19-15.43,6.14-22.93,9.62
		c-8.47,3.94-12.23,11.63-15.19,19.78c-13.21-0.86-14.84-13.09-21.22-20.68c-0.31-1.98,0.08-3.8,1.23-5.45
		c0.91-0.94,2-1.65,3.22-2.14c18.61-4.65,37.7-6.85,56.51-10.54C452.44,85.65,454.14,86.52,455.07,88.45z"/>
	<path class="st1" d="M419.31,186.16c0.83-0.67,1.68-1.36,2.51-2.03c2.06,10.28,3.66,20.4-1.1,30.61
		c-3.1,6.66-5.19,13.81-7.43,20.82c-2.09,6.58-4.79,3.55-7.65,0.75c0.26-3.14,0.52-6.27,0.78-9.41
		C402.66,210.88,409.38,198.04,419.31,186.16z"/>
	<path class="st1" d="M390.94,103.44c3.19,3.39,6.39,6.8,9.6,10.17c3.35,3.51,6.73,6.98,10.09,10.47c-0.21,1.56-0.43,3.11-0.64,4.68
		c-8.56,0.66-17.1,1.33-25.66,2c-0.55-0.52-1.08-1.03-1.62-1.55C379.95,118.93,382.59,110.31,390.94,103.44z"/>
	<path class="st1" d="M455.07,88.45c-1.7-0.24-3.4-0.5-5.1-0.74c-5.12,1.07-10.31,0.36-15.45,0.66c-11.38-0.34-21.47-5.49-32.2-8.21
		c-1.27-0.86-2.17-2.01-2.71-3.42c2.34-7.91,8.96-7.47,15.25-7.31c17.1,0.42,33.88,4.54,51.11,4.22c5.38-0.1,10.8,0.6,16.19-0.17
		c7.23-1.04,14.49-1.64,21.78-0.39c0.82,0.2,1.9,0.14,2.4,0.64c2.52,2.44,4.88,5.03,7.3,7.58c-3.22,0.72-6.41,1.75-9.69,2.11
		C487.65,85.19,471.36,86.8,455.07,88.45z"/>
	<path class="st1" d="M503.93,73.08c-6.32,1.6-12.65,3.19-18.97,4.79c-14.65-1.04-29.19-3.14-43.81-4.33
		c-8.36-0.69-13.17-4.45-15.65-11.9c-2.44-5.72-3.36-11.19,2.77-15.43c4,1.5,8.01,3,12.01,4.5c3.08,6.74,8.58,9.48,15.92,10.35
		c12.02,1.41,24.1,2.9,35.53,7.3C495.78,69.93,499.85,71.5,503.93,73.08z"/>
	<path class="st1" d="M428.26,46.21c0.04,4.92,0.06,9.84,0.1,14.77c-2.84,2.66-5.42,1.68-7.9-0.56
		c-9.61-9.72-17.93-20.89-31.15-26.58c-2.55-1.04-4.74-2.4-5.09-5.42c3.52-5.15,8.18-2.71,12.41-1.56
		c4.44,1.19,8.73,2.83,13.44,1.74C419.87,30.78,424.09,38.47,428.26,46.21z"/>
	<path class="st1" d="M410.08,28.6c-4.04,0.19-8.06,0.47-12.1,0.53c-4.55,0.06-9.09-0.09-13.64-0.14
		c-8.69,6.9-17.75,2.44-26.72,0.88c-4.82-5.29-13.6-9.9-3.4-17.92c1.71,0.11,3.44,0.22,5.16,0.33c7.87,0.37,15.52,1.42,21.83,6.67
		c2.4,1,4.8,2,7.21,3C395.62,24.17,402.84,26.39,410.08,28.6z"/>
	<path class="st1" d="M491.72,68.35c-14.06-1.23-28.15-2.38-42.2-3.71c-10.01-0.95-11.25-2.95-9.25-13.92
		C457.42,56.59,474.56,62.48,491.72,68.35z"/>
	<path class="st1" d="M178.85,272.8c-3.74-4.03-7.48-8.06-11.21-12.09c-1.56-3.04-0.36-5.75,1.06-8.43
		c4.45-20.56,8.86-41.11,13.44-61.64c0.43-1.91,1.96-3.58,2.97-5.36c1.6-2.21,3.62-3.65,6.56-3.39c5.29,2.22,10.6-0.2,15.88,0.11
		c5.49,0.33,12.04-1.35,14.47,6.1c-0.84,8.9-7.86,13.68-14.05,18.32c-20.43,15.34-21.5,36.92-21.14,59.16
		C185.85,269.78,184.32,273.39,178.85,272.8z"/>
	<path class="st1" d="M354.21,11.94c-0.16,2.48-0.74,5.02-0.34,7.41c0.44,2.63,1.81,5.12,2.77,7.68c-1.81,7-8.43,7.47-13.75,9.36
		c-17.17,6.06-33.71,13.06-46.26,26.76c-3.56,1.61-6.12,0.86-7.34-3c4.23-9.44,8.12-19.06,12.88-28.25c1.56-3.01,5.12-5.3,8.23-7.21
		c8.57-5.24,17.37-10.09,26.09-15.1c5.92-6.58,11.64-6.67,17.15,0.48C353.74,10.73,353.94,11.34,354.21,11.94z"/>
	<path class="st1" d="M190.33,183.65c-1.74,0.55-3.48,1.09-5.22,1.64c1.93-3.17,3.87-6.33,5.79-9.5
		c12.01-14.77,23.44-30.01,36.75-43.73c3.74-3.85,7-8.49,13.45-7.97c10.96,5.3,7.48,16.26,10.17,24.83
		c0.05,2.71-1.09,4.89-2.97,6.76c-0.91,0.84-1.95,1.53-3.04,2.11c-13.26,6.38-25.48,14.62-38.54,21.37
		C201.63,181.78,196.82,185.76,190.33,183.65z"/>
	<path class="st1" d="M240.64,125.8c-7.6,7.92-15.3,15.76-22.79,23.78c-7.56,8.1-14.87,16.42-22.47,24.5
		c-0.97,1.04-2.96,1.17-4.48,1.72c10.66-18.55,21.3-37.12,32.05-55.61c0.53-0.92,2.09-1.27,3.17-1.88
		c5.79-1.56,11.62-3.85,17.02,0.98C245.79,122.73,243.94,124.54,240.64,125.8z"/>
	<path class="st1" d="M243.73,121.08c-5.87-0.93-11.73-1.86-17.6-2.78c12.89-10.47,25.79-20.94,38.68-31.41
		c12-2.99,12-2.99,11.3,8.85c-0.35,1.14-0.88,2.2-1.58,3.17c-1.61,1.79-3.74,2.89-5.79,4.09
		C259.64,108.01,256.07,120.36,243.73,121.08z"/>
	<path class="st1" d="M289.3,60.14c1.7,0.72,3.39,1.44,5.09,2.16c5.56-3.06,9.47-11.16,17.86-5.59c3.48,8.54-0.48,15.27-5.56,21.71
		c-5.38,4.26-12.14,5.21-18.43,7.27c-3.73,1.22-7.57,1.5-10.14-2.14c-2.44-3.44,0.32-6.13,1.99-8.86c1.05-1.73,1.34-3.89,3.1-5.21
		C285.22,66.37,287.26,63.25,289.3,60.14z"/>
	<path class="st1" d="M283.19,69.48c-0.14,0.81-0.29,1.63-0.44,2.44c-0.71,3.75-1.43,7.5-2.16,11.26c3.65-0.81,7.3-1.61,10.95-2.43
		c4.48-1.02,8.97-2.05,13.45-3.08c0.27,0.48,0.53,0.95,0.81,1.44c-0.39,7.55-9.79,6.58-12.1,12.33c-5.99,4.12-12.05,7.92-19.79,4.32
		c-0.56-0.98-1.86-2.28-1.57-2.87c2.05-4.44,3.8-8.07-3.8-4.17c-0.7,0.37-2.44-1.18-3.69-1.84
		C270.95,81.09,277.06,75.29,283.19,69.48z"/>
	<path class="st1" d="M155.74,286.83c9.54,8.12,8.09,11.59-1.23,24.71C154.91,303.3,155.32,295.07,155.74,286.83z"/>
	<path class="st1" d="M353.64,10.08c-5.71-0.17-11.44-0.32-17.15-0.48c-0.78-8.07,4.21-9.36,10.69-8.4
		C353.1,2.06,354.21,3.81,353.64,10.08z"/>
	<path class="st1" d="M381.2,18.94c-7.27-2.22-14.56-4.45-21.83-6.67c6.51-0.13,13.05-0.55,19.5-0.06
		C379.82,12.27,380.43,16.59,381.2,18.94z"/>
	<path class="st1" d="M333.51,271.42c-21.74,21.57-43.54,43.08-65.1,64.82c-2.8,2.83-8.1,4.72-6.41,10.4
		c-1.34,3.05-3.64,2.62-6.09,1.63c-7.91-8.21-4.35-18.83-6.18-28.32c-0.58-3.05,0.71-7.47-3.38-8.43c-3.03-0.71-4.61,3.05-6.69,5.01
		c-5.05,4.79-8.3,11.68-16.13,13.25c-7.32-7.88-14.66-15.76-21.98-23.63c-4.44-7.11-8.34-14.28-2.79-22.56
		c5.53-2.97,9.15,1.17,13.3,3.39c9.64,2.99,19.75,3.37,29.61,5.11c4.61,0.81,8.97,1.98,12.88,4.54c9.49-2.97,19.14-5.58,28.45-9.01
		c13.23-4.88,26.14-10.59,39.39-15.44C325.72,270.93,329.79,271.61,333.51,271.42z"/>
	<path class="st1" d="M223.54,329.76c7.22-8.45,14.22-17.11,21.78-25.26c3.55-3.81,6.91-2.89,7.44,2.71
		c1.01,10.63,1.75,21.29,2.7,31.92c0.26,2.86,0.86,5.68,1.3,8.52c2.12,6.88-4.16,9.41-7.34,13.54c-0.1,0.94-0.22,1.89-0.32,2.83
		c0.75,0.66,0.92,1.19,0.53,1.61c-0.38,0.39-0.71,0.57-1.01,0.52C240.25,354.02,231.89,341.9,223.54,329.76z"/>
	<path class="st1" d="M178.85,272.8c1.83-2.43,3.67-4.84,5.51-7.27c1.95-18.72,15.19-31.23,26.06-45c1.23-1.56,3.71-1.72,5.67-0.18
		c1.99,3,2.16,6.39,0.66,9.37c-7.9,15.66-12.51,32.82-22.65,47.45c-3.16,3.95-7.04,6.47-12.43,5.91
		C180.74,279.65,179.79,276.22,178.85,272.8z"/>
	<path class="st1" d="M200.36,283.04c-0.03,3.13-0.23,6.27-0.05,9.38c0.27,4.58,0.82,9.14,1.25,13.7c-8-0.2-15.97-6.29-24.65-0.44
		c3.09-4.89,6.18-9.79,9.27-14.67c2.27-4.79,4.75-9.41,9.91-11.89C198.76,279.11,200.92,279.66,200.36,283.04z"/>
	<path class="st1" d="M195.55,280.07c1.84,7.72-5.03,8.29-9.38,10.93c-1.51-2.64-3-5.29-4.51-7.93c3.03-2.11,6.05-4.22,9.08-6.33
		C193.97,275.62,196.14,275.95,195.55,280.07z"/>
	<path class="st1" d="M287.15,414.96"/>
	<path class="st1" d="M380.07,187.5c-14.53,26.25-29.08,52.49-43.61,78.74c-0.74-0.86-1.49-1.73-2.23-2.59
		c-11.79-24.3-13.87-51-19.67-76.75c-5.09-22.6-9.08-45.43-13.13-68.24c-0.05-2,0.51-3.83,1.73-5.43c0.96-0.9,2.13-1.36,3.47-1.39
		c7.58,1.56,11.66,7.78,16.63,12.57c15.57,15,30.11,31.02,46.46,45.24c4.86,4.23,7.64,9.7,10.64,15.1l0.09,0.43
		c0.78,0.65,0.99,1.22,0.61,1.69C380.68,187.33,380.35,187.55,380.07,187.5z"/>
	<path class="st1" d="M195.55,280.07c-1.6-1.11-3.19-2.21-4.79-3.32c7.48-16.07,15.06-32.08,22.35-48.24
		c1.31-2.92,1.42-6.37,2.06-9.58c-4.05-7.22,3.31-11.95,4.09-18.1c0.56-4.42,2.69-8.53,2.62-13.07c-0.03-2.76,1.16-4.72,3.83-5.76
		c19.23-1.93,38.17-7.97,57.84-4.31c1.14,0.74,1.96,1.74,2.48,2.99c-1.26,2.3-2.52,4.61-3.78,6.92
		c-10.43,27.64-26.13,52.63-41.06,77.97c-7.08,12.01-16.73,21.83-31.85,24.2c-3-2.24-5.99-4.47-8.99-6.71
		C198.76,282.05,197.15,281.06,195.55,280.07z"/>
	<path class="st1" d="M286.04,180.66c-0.9-0.19-1.81-0.39-2.7-0.58c-0.65-1.33-0.77-2.72-0.36-4.14c4.34-10.79,4-22.45,6.51-33.57
		c2.18-9.66,4.38-19.27,14.27-24.62c2.23,8.24,4.92,16.39,6.61,24.74c8.12,40.36,15.95,80.78,23.88,121.18
		c-3.56-5.5-7.44-10.83-10.61-16.55c-11.75-21.23-23.26-42.6-34.93-63.88C288.13,182.2,286.93,181.5,286.04,180.66z"/>
	<path class="st1" d="M209.34,289.74c1.82-1.67,3.38-3.8,5.49-4.93c15.52-8.31,23.63-22.49,31.8-36.93
		c11.49-20.31,23.71-40.22,35.62-60.3c-3.91,14.54-8,29.06-11.69,43.65c-5.49,21.75-10.7,43.58-16.02,65.36
		c-10.54-0.76-21.13-1.18-31.61-2.45C218.3,293.58,213.87,291.27,209.34,289.74z"/>
	<path class="st1" d="M189.1,352.14c1.82-1.67,3.38-3.8,5.49-4.93c15.52-8.31,23.63-22.49,31.8-36.93
		c11.49-20.31,23.71-40.22,35.62-60.3c-3.91,14.54-8,29.06-11.69,43.65c-5.49,21.75-10.7,43.58-16.02,65.36
		c-10.54-0.76-21.13-1.18-31.61-2.45C198.05,355.97,193.62,353.66,189.1,352.14z"/>
	<path class="st1" d="M249.42,361.19c2.44-4.51,4.88-9.03,7.34-13.55c1.75-0.33,3.49-0.67,5.25-1c4.4-0.67,8.82-1.36,13.22-2.03
		C266.61,350.13,258.01,355.66,249.42,361.19z"/>
	<path class="st1" d="M380.07,187.5c0.09-0.79,0.22-1.56,0.36-2.34c0.82-0.01,1.62,0.03,2.44,0.11c6.65-0.9,13.39-1.4,19.92-2.82
		c6.32-1.37,11.65-0.22,16.52,3.71c-4.3,13.58-8.6,27.15-12.89,40.74c-1.73-0.46-2.52,5.64-5.12,0.43
		c-6.34-12.76-13.04-25.36-19.63-38.01C381.3,188.63,380.61,188.11,380.07,187.5z"/>
	<path class="st1" d="M380.34,184.73c-3.88-3.5-7.91-6.85-11.65-10.49c-20.67-20.21-41.27-40.49-61.89-60.75
		c10.6-7.31,21.66-3.23,30.92,1.28c11.21,5.44,22.69,8.03,34.67,9.8c2.95,0.46,5.92,0.89,8.56,2.44c1.16,0.92,2.22,1.92,3.17,3.04
		l0.19,0.71c-0.32,6.55-0.51,13.09-1.01,19.61C382.43,161.83,381.34,173.27,380.34,184.73z"/>
	<path class="st1" d="M384.14,130.04c-0.88-0.13-1.77-0.25-2.65-0.38c-11.73-7.91-19.23-19.64-28.09-30.1
		c-3.42-4.04-6.48-9.44,0.96-13.42c12.61,3.5,27.13,1.53,37.15,12.42c-0.19,1.63-0.39,3.25-0.58,4.88
		C388.68,112.31,386.4,121.18,384.14,130.04z"/>
	<path class="st1" d="M391.52,98.55c-13.19-3.43-26.39-6.88-39.58-10.31c-0.09-0.67-0.18-1.36-0.27-2.05
		c1.49-3.65,4.69-4.89,8.25-5.66c14.4,2.47,29.05-3.83,43.37,1.16c9.12,3.62,7.54,8.24,0.81,12.55c-2.99,1.91-6.53,3.15-9.82,4.72
		C393.35,98.82,392.44,98.68,391.52,98.55z"/>
	<path class="st1" d="M394.27,98.95c4.03-3.29,8.3-6.33,12.02-9.93c3.77-3.64-1.48-2.91-2.53-4.25c-0.12-1.59,0.58-2.67,2.1-3.23
		c10.17-1.61,19.13,5.87,29.36,3.74c4.92,0.81,9.83,1.63,14.75,2.43C431.4,91.46,412.84,95.2,394.27,98.95z"/>
	<path class="st1" d="M420.69,58.17c2.56,0.94,5.12,1.88,7.67,2.81c2.06,0.33,4.17,0.48,6.16,1.07c0.7,0.2,1.66,1.56,1.53,2.2
		c-1.18,5.77-1.26,5.81,4.32,6.7c14.86,2.34,29.71,4.63,44.57,6.94c-1.56,0.46-3.17,1.44-4.67,1.31
		c-15.02-1.26-30.04-2.81-45.06-4.04c-9.17-0.75-18.36-1.37-27.56-1.44c-2.47-0.01-4.96,2.25-7.44,3.47
		c-4.21,2.82-7.62,1.18-10.79-1.83c-1.91-2.31-3.64-5.56-2.38-7.88c7.92-14.58-5.01-14.05-12.71-17.17
		c-2.27-0.93-4.74-1.53-7.22-2.01c-4.14-0.36-8.12-1.04-10.56-4.88c4.67-11.63,15.21-7.41,23.82-8.47
		C396.07,38.91,409.1,47.31,420.69,58.17z"/>
	<path class="st1" d="M390.49,73.17c3.25,1.33,6.48,2.67,9.73,4c0.82,0.13,1.65,0.27,2.47,0.41c1.26,1.61,2.48,3.24,1.9,5.47
		c-0.21,0.6-0.48,1.18-0.82,1.72c-15.06-0.36-30.13-0.7-45.19-1.06c-0.27-0.56-0.55-1.12-0.83-1.68
		C367.41,74.66,378.09,70.88,390.49,73.17z"/>
	<path class="st1" d="M404.57,83.06c-0.64-1.82-1.26-3.65-1.9-5.47c10.84,2.57,21.69,5.14,32.54,7.7
		C425.01,84.55,414.79,83.8,404.57,83.06z"/>
	<path class="st1" d="M380.6,38.48c-8.14,1.31-16.28,2.63-24.44,3.94c-14.66,5.91-28.26,15.11-45.18,14.08
		c-5.53,1.93-11.06,3.86-16.61,5.8c7.21-11.56,18.26-18.58,30.5-23.77c10.35-4.37,21.14-7.72,31.75-11.5
		c9.23,0.65,18.47,1.31,27.71,1.96c2.55,0.6,5.08,1.19,7.62,1.79C392.57,39.57,385.31,37.22,380.6,38.48z"/>
	<path class="st1" d="M380.6,38.48c3.78-2.57,7.57-5.14,11.35-7.69c3.52,1.87,7.58,3.14,10.45,5.71c6.74,6,12.92,12.58,19.21,19.04
		c0.3,0.31-0.6,1.73-0.93,2.63C407.32,51.61,393.96,45.04,380.6,38.48z"/>
	<path class="st1" d="M223.48,188.38c5.05,12.23-3.83,20.81-8.32,30.55c-10.27,15.53-20.54,31.07-30.82,46.6
		c-0.87-4.26-2.23-8.48-2.44-12.76c-0.17-3.61,1.6-7.3,1.49-10.93c-0.49-17.8,9.75-29.57,22.6-40.13
		c5.09-4.18,9.67-8.95,14.49-13.45C221.55,186.89,222.55,186.94,223.48,188.38z"/>
	<path class="st1" d="M223.48,188.38c-1-0.05-2-0.09-3-0.14c-5.56-4.13-11.82-0.65-17.65-1.61c-4.22-0.7-8.34-1.97-12.51-2.97
		c17.92-9.85,35.84-19.72,53.77-29.57c1.1,14.05-6.74,22.87-18.09,29.64C225.17,185.27,224.33,186.83,223.48,188.38z"/>
	<path class="st1" d="M226.02,183.72c6.03-9.88,12.05-19.77,18.09-29.64c0.7,0.15,1.4,0.24,2.12,0.25
		c6.44-3.04,11.36,0.57,16.3,3.69c7.06,4.44,13.27,10.17,21.22,13.27c2.12,2.11,2.51,4.27,0.18,6.51c-0.17,0.76-0.38,1.51-0.6,2.26
		c-14.43,1.47-28.84,3.11-43.29,4.31C235.41,184.77,230.69,183.98,226.02,183.72z"/>
	<path class="st1" d="M243.73,121.08c8.12-7.12,16.22-14.24,24.34-21.36c0.49,0.52,0.99,1.06,1.49,1.58
		c3.35,12.71,2.74,25.28-1.3,37.77c-4.21,7.18-9.32,12.85-19.02,10.67c-1.61-4.82-3.14-9.66-4.83-14.45
		c-1.13-3.2-2.49-6.33-3.75-9.48C241.66,124.23,242.7,122.66,243.73,121.08z"/>
	<path class="st1" d="M249.22,149.73c5.09-3.32,10.18-6.64,15.27-9.97c10.35,3.98,18.93,19.87,17.67,32.72
		c-8.23,2.56-12.02-4.97-17.87-7.75c-6.27-2.99-12.09-6.9-18.1-10.4C247.22,152.81,248.22,151.27,249.22,149.73z"/>
	<path class="st1" d="M351.94,88.25c2.44,4.11,4.57,8.43,7.39,12.25c7.22,9.84,14.76,19.46,22.17,29.16
		c-2.48-0.39-4.96-0.79-7.44-1.18c-19.44-5.47-36.91-15.55-55.55-22.84c-6.69-2.62-13.99-2.28-21.28-1.91
		c-8.54,0.42-17.96,2.28-24.56-5.9c0.3-0.75,0.71-1.44,1.22-2.07c6.31-2.45,12.61-4.91,18.92-7.36c4.65-6.17,12.01-5.4,18.47-6.97
		c10.44,14.64,22.7,5.24,34.46,2.43c2.61,0.14,4.95,0.79,6.45,3.1C351.65,87.3,351.56,87.72,351.94,88.25z"/>
	<path class="st1" d="M272.66,97.84c9.03,1.53,17.74,2.38,27.22,0.79c9.35-1.56,18.74,1.27,28.3,5.86
		c10.9,5.24,21.93,9.98,32.05,16.69c4.31,2.86,9.19,4.89,13.82,7.3c-8.67-1.32-17.34-2.62-26.01-3.95c-1.65-0.25-3.8-0.08-4.83-1.03
		c-10.4-9.55-24.08-7.37-36.4-10l-1.12-0.32l-1.14-0.17c-14.02,0.62-26.27-3.41-36.28-13.28l-0.21,0.01
		C269.6,99.1,271.13,98.47,272.66,97.84z"/>
	<path class="st1" d="M352.19,86.97c-2.51-0.09-5.03-0.19-7.53-0.28c-10.45,1.22-21.14,4.63-30.58-3.24
		c-3.45-1.26-6.9-2.56-9.09-5.76l-0.01-0.01c2-7.06,4-14.11,6-21.17c10.45-4.41,20.75-9.2,31.43-13.02
		c4.16-1.49,9.14-0.78,13.75-1.07c4.43,0.86,8.84,1.73,13.27,2.59c7.14,16,1.92,28.21-12.09,37.72c0.3,0.46,0.7,0.79,1.22,0.99
		C356.45,84.8,354.32,85.88,352.19,86.97z"/>
	<path class="st1" d="M305,77.69c2.43,1.27,4.84,2.54,7.27,3.81c1.03,1.69,0.58,2.25-1.34,1.68c-6.04,1.74-12.08,3.5-18.1,5.24
		c2.08-2.1,4.06-4.28,6.27-6.25C300.92,80.53,303.01,79.17,305,77.69z"/>
	<path class="st1" d="M268.27,99.72c12.09,4.42,24.19,8.85,36.28,13.28c-0.27,1.58-0.55,3.15-0.82,4.73
		c-0.31,1.61-0.12,3.62-1.03,4.79c-10,12.88-8.66,28.69-11.88,43.3c-1.04,4.73-0.61,10.19-6.91,11.99
		c-0.58-1.77-1.17-3.55-1.75-5.31c-5.9-10.91-11.79-21.81-17.67-32.72C265.75,126.42,267.01,113.07,268.27,99.72z"/>
	<path class="st1" d="M357.35,82.73c-1.52-6.6,4.16-8.8,7.86-12.13c4.01-3.61,6.79-7.11,2.16-12.24c-4.58-5.08,0.99-8.94,2.08-13.35
		c8.32,0.94,16.71,1.14,22.27,9.24c1.51,2.2,5.95,2.45,10.21,4.03c-7.23,2.92-14.76,5.4-11.43,14.87
		C379.44,76.36,368.39,79.55,357.35,82.73z"/>
	<path class="st1" d="M310.92,83.17c0.38-0.61,0.83-1.17,1.34-1.68c10.8,1.73,21.6,3.46,32.4,5.19c-6.88,2.82-13.84,5.5-20.63,8.53
		c-6.23,2.77-9.21,0.7-10.36-5.57C313.26,87.39,311.87,85.32,310.92,83.17z"/>
	<polygon class="st1" points="260.2,347.86 278.95,344.64 280.66,342.32 333.29,270.88 254.73,343.98 	"/>
	<path class="st1" d="M240.91,334.22c0,0,45.76,35.31,101.17-21.7s69.38-80.07,69.38-80.07l-71.98,31.82L240.91,334.22z"/>
	<polygon class="st1" points="275.14,345.1 346.49,252.74 302.22,336.65 282.67,346.26 	"/>
</g>
<g id="Camada_2_1_">
	
		<linearGradient id="SVGID_1_" gradientUnits="userSpaceOnUse" x1="732.9368" y1="1693.3811" x2="473.283" y2="956.2879" gradientTransform="matrix(0.9656 0.2599 0.2599 -0.9656 -689.8025 1399.3002)">
		<stop  offset="0" style="stop-color:#FFFFFF;stop-opacity:0"/>
		<stop  offset="0.0376" style="stop-color:#FFF1F1;stop-opacity:0.0324"/>
		<stop  offset="0.6962" style="stop-color:#FF0000;stop-opacity:0.6"/>
	</linearGradient>
	<path class="st2" d="M174.05,194.44c43.55-80.9,93-115.39,93-115.39s3.39,16.73,29.13-18.72c25.74-35.45,44.92-56.78,60.5-55.32
		c15.58,1.46,72.72,16.53,83.11,27.18s18.97,18.19,28.23,23.28c9.26,5.08,60.53,31.78,60.53,31.78L536,89.2
		c0,0-37.04,8.72-55.77,9.06s-30.95-13.44-33.65-3.58c-2.7,9.85-18.96,39.88-18.96,39.88s15.82,20.01,9.73,42.15
		s-11.27,60.37-21.43,68.25c-10.15,7.88-80.38,21.05-80.38,21.05s-14.44,33.14-6.99,35.11c7.45,1.97,43.58-22.83,43.58-22.83
		l-81.5,73.54l-7.21,74.64l39.76,68.54l6.56,43.96L205.49,361.08L160.8,436.4c0,0-32.96,52.02-46.27,61.7
		c-13.32,9.69-32.06,10.03-30.71,5.11c1.35-4.92,4.29-25.27,4.29-25.27s-35.45,22.33-45.84,11.68
		c-10.39-10.65-1.14-34.61-1.14-34.61l29.57-39.71c0,0,28.22-34.79,48.31-69.09s32.05-68.1,25.49-83.02
		c-6.56-14.92-35.02-56.73-38.63-62.96c-3.61-6.23-4.08-43.31-4.08-43.31L85.51,99.84l15.82,20.01l14.23,35.43l7.01,22.96
		l12.65,21.81l22.6,24.43l12.87,11.31L174.05,194.44z"/>
</g>
</svg>
