<svg xmlns="http://www.w3.org/2000/svg" viewBox="0 0 400.77 395.03"><defs><style>.cls-1{fill:#fff;stroke:#fff;stroke-miterlimit:10;}</style></defs><g id="Camada_3" data-name="Camada 3"><path class="cls-1" d="M400.3,67.9c-1.82,3.25-1.4,6.93-1.9,10.42C395,102.2,387.7,125.06,380,147.81c-12.2,36.11-23.69,72.46-38.26,107.72A503.82,503.82,0,0,1,316,309.15c-8.45,15.15-17.55,19.15-34.54,16.22-18.76-3.2-35.55-11.07-51.55-20.88-5.21-3.19-5-2.89-9.83.72-12.7,9.48-25.42,19-38.5,27.91-14.78,10.1-29.37,20.56-45.29,28.88-5.08,2.66-10.47,4.59-16.35,4.49a4.77,4.77,0,0,0-3.77,1.65c-.88,1-1.82,1.85-2.77,2.74-5.63,5.25-12,4-15-3.06a173.7,173.7,0,0,1-6.6-19.1c-7.89-27.29-9.35-55.27-9-83.42.24-18,1.53-35.87,2.87-53.76.14-1.94,0-3.12-2.22-3.63-14.08-3.38-25.31-11.6-35.7-21.22C30.4,170.62,16.45,151.63,1.9,133.17c-.39-.5-.6-1.18-1.37-1.24V127.3c1.25-1.29,3.61-1.92,2.9-4.4-1.21-4.25.9-6.86,4.1-9.17A79.16,79.16,0,0,1,28.17,103c24.39-8.37,49-16.17,73.24-24.89C189.74,46.3,280.11,21.66,371.63,1c2.54-.57,5.07-.88,7.6.41,3.07,1.55,2.54,6.13,5.07,7.13,3,1.09,5.73,1.79,7.94,4.29,4,4.46,4.33,10.12,5.71,15.47,1.05,4.07.68,8.39,2.35,12.33Zm-73.3,4,.69-.54c-.45-.51-.75-.23-1,.18l-.91.45L299.9,87c-.88.51-1.86.88-1.81,2.24.13,4-.28,8.14,1.15,12.55l27.11-29a.78.78,0,0,0,.69-.86h0ZM141.4,341c23.38-14.43,45.07-31.15,66.21-48.63,1.44-1.2,1.69-1.84,0-3.09q-10.49-7.76-20.79-15.76c-1.75-1.35-2.43-1.16-3.27.88-4.1,9.89-10,18.75-16,27.52q-13.28,19.24-26.65,38.37l-.47.65ZM381.64,34.3c-1.6,1.85-2.79,3.18-3.93,4.54C356,64.76,333.56,90.1,311.08,115.36c-40.91,46-82.4,91.43-121.74,138.78-2.12,2.55-2,3.49.72,5.34,11.85,8,23.41,16.42,35.27,24.38,13,8.71,26.58,16.13,41.82,20.32,17.36,4.78,31.34,0,41.39-14.88,5.14-7.59,8.46-16,11.36-24.65,5.26-15.61,9.16-31.65,15.31-47,9.43-23.45,19.33-46.73,28-70.49,9.41-25.81,17.28-52,19.5-79.55A139.09,139.09,0,0,0,381.64,34.3ZM14.64,130c17.63,16.59,32.58,35.2,52.93,47.86a56.25,56.25,0,0,0,25.09,8.78c12.73,1.07,24.06-2.79,34.7-9.34,11.1-6.84,21.11-15.15,31.11-23.44,19.74-16.35,40-31.86,62.71-44C248.74,95.1,276,79.8,302.62,63.32c14.51-9,27.27-20.23,40.61-31a3,3,0,0,0-2.58-.08C320.65,38.86,300,42.87,279.38,47c-22.9,4.52-46,8.38-68.29,15.5C145.4,83.45,80.56,106.94,14.66,130ZM120,339.4c5.6-6.69,10.31-13,14.85-19.49a2.33,2.33,0,0,0,.37-2.44c-3.45-9.79-3.3-20-2.49-30.08,2.35-29.29,5-58.55,7.57-87.83.12-1.36-.12-3.36,1.82-3.27,1.68.09,1.22,2,1.27,3.21,1.48,33.78,3.36,67.55,2.86,101.39,0,.14.31.28.76.65l15.67-25.11c-3.76-.46-4.67-2.84-5.25-5.75-4.38-22.15-4.12-44.47-2.59-66.84.48-7,1-14,1.52-21.66-1.85,1.33-3.21,2.29-4.54,3.27-8.28,6.09-16.8,11.81-26.23,16-2.6,1.15-3.26,2.62-3.14,5.31,1.16,25.77-.55,51.5-1.42,77.23-.62,18.17-1.52,36.31-1,55.44Zm58.12-175.27c-4.14,3.48-7.56,6.69-11.33,9.4-3.31,2.37-4.38,4.8-4.14,9.15,1.2,21.55,1.7,43.14,2.63,64.7a154.52,154.52,0,0,0,2.33,22.41c1.13-1.18,1.78-2,2.54-2.64,2.31-2,3.78-3.66.3-6.39-2.9-2.26-2.36-7.42.79-9.13,4.88-2.64,6.66-7.76,10.16-11.48a2.73,2.73,0,0,0,.35-2.59c-1.58-8.38-1-16.85-.9-25.29a300.42,300.42,0,0,0-2.73-48.14Zm32,38.6c6.76-8.24,12.86-15.78,19.11-23.2a5.64,5.64,0,0,0,1.15-5.65c-1.36-5.68-2.47-11.42-3.49-17.17-1.64-9.18-2.07-18.48-2.42-28.2a214.9,214.9,0,0,0-18.06,12.14c-.39.29-1.27.48-.72,1.4,2.79,4.7,1.38,9.89,1.53,14.84.47,14.94.14,29.91,2.92,45.84Zm-97.12,4c-4.37.79-8.3,1.8-12.27,2.12-2.82.22-3.62,1-3.5,3.9,1.16,27.14.41,54.35,2.41,81.47.55,7.46,1,15,2.83,22.29,3.4-36.56,6.61-73.13,10.55-109.75Zm88-62.23c-5.36,4.55-9.93,8.55-14.65,12.36-1.72,1.39-2.28,2.65-1.73,4.91,2.84,11.77,3.59,23.84,4.83,35.84,1,9.21,2,18.41,2.45,28.33,4-5.06,7.44-9.57,11-14a2.58,2.58,0,0,0,.35-3.4c-2.91-5.08-3.84-10.6-3.91-16.43-.13-15.53.82-31.07,1.71-47.61Zm70.86-42.61c-6.56,3.47-12.47,6.67-18.47,9.71-1.65.83-1.72,2-1.61,3.48.36,5.06.5,10.14,1.06,15.17.43,3.86.86,7.78,2.31,11.43,1.24,3.09,3.7,3.58,5.85,1.23,4.56-5,9.08-10,13.63-15,1-1.08,2-2,1.28-3.74-2.75-6.92-3.69-14.22-4-22.25Zm-27.11,14.64c-4.43,2.49-8.22,4.67-12.06,6.75-1.25.68-1.43,1.55-1.34,2.87.81,11.57,3.08,22.9,5.44,34.22.12.56-.23,1.44,1,1.64,5.49.88,5.47.93,9.55-3.7,1.64-1.85,3.32-3.66,4.92-5.54.58-.67,1.81-1.28-.12-2.19-3.62-1.71-4.76-5.29-5.71-8.84-2.07-8-1.7-16.21-1.65-25.21ZM283.9,118c2.18-3.21,6.43-4.82,6-7.59-1-5.58-1.06-11.18-1.42-17.27-2.83,1.5-5.19,2.78-7.58,4a1.69,1.69,0,0,0-1,2.17h0C281.2,105.28,282.41,111.2,283.9,118Z" transform="translate(-0.03 0)"/><path class="cls-1" d="M1.33,298.64A67.85,67.85,0,0,1,3.9,278.85c.83-2.88,1.42-6.28,5.56-5.62,4.42.7,3.87,4.26,3.51,7.37a75,75,0,0,0-.16,19,50.5,50.5,0,0,0,6.82,19.7c2.71,4.43,5.52,8.8,8.35,13.15,2,3.08,1.9,5.95-.88,8.37s-5.2,1.37-7.74-.52C8.71,332.23,4.24,320.82,2.2,308.18,1.64,304.74.9,301.3,1.33,298.64Z" transform="translate(-0.03 0)"/><path class="cls-1" d="M198,394.53a4.58,4.58,0,0,1-4.13-2.55,4.39,4.39,0,0,1,.21-5.11,27.4,27.4,0,0,1,3.69-4A273.19,273.19,0,0,0,226.54,355a12.51,12.51,0,0,1,3.32-2.65,6,6,0,0,1,7.21.89,6.16,6.16,0,0,1,2,7,16.62,16.62,0,0,1-4.39,6.79c-10.16,9.45-20.56,18.63-32.37,26A7.82,7.82,0,0,1,198,394.53Z" transform="translate(-0.03 0)"/><path class="cls-1" d="M212.33,352.53c-.33,7-4.74,11.91-9.29,16.51a69.63,69.63,0,0,1-25.84,16.19c-3.17,1.17-5.7.75-7.16-2.42s-.1-5.49,2.92-6.94c7.89-3.78,15.38-8.1,21-15a51.23,51.23,0,0,0,5.71-8.78,15.23,15.23,0,0,1,2.36-3.53c1.89-1.93,4.07-3.28,7-2C211.7,347.66,212.4,349.9,212.33,352.53Z" transform="translate(-0.03 0)"/><path class="cls-1" d="M46.66,328a3.92,3.92,0,0,1-3.2,4.31,5.74,5.74,0,0,1-6.56-2.26,33.22,33.22,0,0,1-4.62-9c-3.82-11.74-7.18-23.57-7-36.1,0-3,.47-5.78,4-5.94s4.56,2.33,4.92,5.37c1.43,12.24,5.7,23.64,10.35,34.9A32.78,32.78,0,0,1,46.66,328Z" transform="translate(-0.03 0)"/><path class="cls-1" d="M326.67,71.53c.27-.41.57-.69,1-.18l-.69.54Z" transform="translate(-0.03 0)"/><path class="cls-1" d="M325.76,72l.91-.45c.11.12.21.24.33.36a.78.78,0,0,1-.7.85h0Z" transform="translate(-0.03 0)"/><path class="cls-1" d="M141.4,341h-1l.47-.65Z" transform="translate(-0.03 0)"/></g></svg>