<?xml version="1.0" encoding="utf-8"?>
<!-- Generator: Adobe Illustrator 24.1.1, SVG Export Plug-In . SVG Version: 6.00 Build 0)  -->
<svg version="1.1" id="Camada_3" xmlns="http://www.w3.org/2000/svg" xmlns:xlink="http://www.w3.org/1999/xlink" x="0px" y="0px"
	 viewBox="0 0 400 400" style="enable-background:new 0 0 400 400;" xml:space="preserve">
<style type="text/css">
	.st0{fill:#F07960;}
</style>
<g>
	<path class="st0" d="M388,170.22c-1.32-2.97-0.92-5.93,0-8.9C388,164.28,388,167.25,388,170.22z"/>
	<path class="st0" d="M388,135.31c-0.79-2.88-0.49-5.87-0.6-8.78c-0.78-19.76-4.65-38.94-10.87-57.62
		c-6.33-19.01-19.45-30.65-39.24-34.61c-11.81-2.36-23.77-2.58-35.73-2.54c-3.28,0.01-6.56,0.6-9.88,0.62
		c-13,0.07-25.96-0.36-38.93-1.27c-11.13-0.79-22.26-1.59-33.4-2.36c-11.82-0.82-23.64-1.34-35.47-1.83
		c-5.69-0.24-11.38,0.32-17.07,0.54c-12.95,0.51-25.68,2.24-38.12,5.76C112.75,37.73,98.39,45.1,86.63,57.1
		c-10.8,11.02-18.41,24.1-24.41,38.1c-10.89,25.43-17.06,52.2-21.5,79.4c-2,12.27-3,24.62-3.28,37.08
		c-0.33,15.05-0.38,30.09,0.77,45.08c1.16,15.15,4.02,30.07,8.09,44.71c6.37,22.88,17.74,42.75,36.42,57.79
		c9.93,7.99,21.37,12.76,34.49,11.68c3.71-0.31,7.24,0.09,10.86,0.61c19.43,2.78,38.89,4.12,58.59,3.13
		c17.52-0.88,35.04-1.52,52.53-2.89c14.7-1.16,29.23-3.17,43.46-7.15c7.22-2.02,14.09-5.24,21.74-5.8
		c5.45-0.4,10.81-1.68,16.17-2.81c21.6-4.56,36.43-17.3,45.43-37.3c5.53-12.3,8.42-25.3,10.58-38.49
		c2.77-16.88,4.96-33.84,6.92-50.84c1.75-15.16,3.82-30.29,3.96-45.61c0.03-3.12-0.33-6.36,0.56-9.46c0-1.37,0-2.74,0-4.11
		c-0.57-2.97-0.57-5.93,0-8.9C388,152.65,388,143.98,388,135.31z M277.46,134.85c0.39,4.34,1.69,8.5,0.41,13.08
		c-1.37,4.89,1.83,8.81,7.12,9.04c10.71,0.46,21.45,0.68,32.14-0.14c6.38-0.49,6.33-0.76,5.89,5.41c-0.81,11.39-1.02,22.8-0.63,34.2
		c0.1,2.92-0.83,3.63-3.52,3.72c-10.83,0.39-21.65,0.99-32.47,1.48c-7.2,0.33-9.94,5.04-6.43,11.28c0.51,0.91,0.64,1.65,0.38,2.55
		c-3.74,12.87-3.28,26.17-3.91,39.35c-1.03,21.33-0.72,42.65,0.66,63.95c0.21,3.25-0.48,4.47-3.95,4.71
		c-19.45,1.31-38.85,3.24-58.23,5.34c-1.54,0.17-2.28,0.07-2.16-1.81c1.05-15.87-1.76-31.61-1.65-47.47
		c0.11-17.33-0.34-34.66,2.23-51.88c0.07-0.45,0.14-0.92,0.08-1.36c-0.59-4.14-1.43-7.99,1.04-12.21c1.7-2.89-1.53-6.84-5.64-8.43
		c-6.39-2.47-13.1-2.92-19.84-2.85c-5.81,0.06-11.63,0.29-17.43,0.66c-1.9,0.12-2.44-0.34-2.76-2.25
		c-2.05-12.15-1.88-24.26,0.16-36.39c0.3-1.79,1.11-2.09,2.7-2.2c8.53-0.57,17.06-1.26,25.58-1.92c5.14-0.4,6.75-2.37,7.4-7.47
		c0.62-4.82,2.9-9.3,3.54-14.17c3.64-27.66,21.91-44.21,44.3-57.11c20.37-11.74,42.68-14.31,65.78-11.53
		c2.38,0.29,3.28,1.09,3.56,3.68c1.31,12.11,2.95,24.18,4.51,36.59c-10.2-0.46-20.29,0.48-30.38,1.35
		c-4.19,0.36-8.42,0.58-12.56,1.3c-4.83,0.84-7.44,4.35-7.15,9.25C276.5,126.7,277.1,130.76,277.46,134.85z"/>
	<path class="st0" d="M345.42,304.76c2.6-8.73,5.2-17.46,7.87-26.45C354.43,282.52,349.65,299.36,345.42,304.76z"/>
	<path class="st0" d="M66.17,157.66c1.41-7.55,3.05-15.04,5.76-22.27c-0.5,8.2-3.02,15.96-5.01,23.84
		C65.58,159.23,66.09,158.34,66.17,157.66z"/>
	<path class="st0" d="M320.12,217.62c5.41-0.36,7.05,5.17,3.79,11.93C322.73,225.49,324.13,220.8,320.12,217.62z"/>
	<path class="st0" d="M116.92,310.78c-3.4-2.58-7.48-4.51-9.15-9.57C113.18,302.68,114.23,307.53,116.92,310.78z"/>
	<path class="st0" d="M159.93,124.11c2.87-3.7,5.63-7.25,8.69-11.18C168.18,117.7,162.99,124.34,159.93,124.11z"/>
	<path class="st0" d="M150.45,95.85c-2.09-2.85-1.24-4.32,1.78-5.06c1.38-0.34,2.68-1,4.88-1.86
		C154.69,91.91,152.73,94.01,150.45,95.85z"/>
	<path class="st0" d="M193.52,223.75c2.31-0.88,3.4-0.53,2.81,2.11c-0.65,2.86-1.16,5.74-1.83,9.09
		C193.72,230.92,195.05,227.22,193.52,223.75z"/>
	<path class="st0" d="M66.17,157.66c0.22,0.54,0.06,1.26,0.75,1.57c-0.69,3.18-1.37,6.36-2.06,9.54c-0.63,0.18-0.93,0.03-0.69-0.68
		C64.7,164.6,64.99,161.04,66.17,157.66z"/>
	<path class="st0" d="M64.17,168.1c0.23,0.23,0.46,0.45,0.69,0.68c-0.47,2.15-0.94,4.31-1.41,6.46
		C63.06,172.77,63.17,170.38,64.17,168.1z"/>
</g>
</svg>
