<svg id="Camada_1" data-name="Camada 1" xmlns="http://www.w3.org/2000/svg" viewBox="0 0 391.55 343.86"><defs><style>.cls-1{fill:none;stroke:#fff;stroke-miterlimit:10;stroke-width:7px;}</style></defs><path class="cls-1" d="M386.05,121.1c-2,5.22-2.22,10.83-3.44,16.22a157,157,0,0,1-18.82,46.27c-24.8,41.2-59,73.2-98.64,99.74-2.26,1.52-4.68,2.49-4.62,6.26,0,2.87-3.07,3.67-5.44,2.43-2-1-3.22-.39-4.75.52-19.34,11.45-38.71,22.86-57,35.95-6.12,4.37-12.8,7.88-20.27,9.34-4.18.82-8.44,1.19-11.76-2.72-.88-1-2.63-1.3-4-1.92-23.54-10.91-44.67-25.55-64.13-42.54-27.44-24-50.88-51.32-68.22-83.54C10.05,179.42.1,150.17,1.66,118.32,3.55,80.56,17.55,48.5,49.8,26.66,93.42-3,154,11.94,179.47,58.15c.77,1.39,1.22,3,2.75,4.19A78.67,78.67,0,0,1,197.81,34c14-16.09,31.94-25.41,52.54-29.67,30.15-6.24,59-2.36,85.92,12.83,25.3,14.26,40.68,36,46.73,64.3,1.16,5.42,2,10.89,3.05,16.33v12a7.67,7.67,0,0,0,0,5.26Z" transform="translate(2 2)"/><path class="cls-1" d="M386.05,115.09a4.32,4.32,0,0,1,0-5.26Z" transform="translate(2 2)"/><path class="cls-1" d="M204,300.26c-3,3.58-5.47,3.91-9.6,1.65C147.21,276,107.08,241.66,71.74,201.31c-14.92-17-30-33.93-47-49a3.55,3.55,0,0,1-1.46-2c-4-19.62-6-39.25-.46-59,1.73.35,2.52,1.74,3.58,2.72C66.51,131.27,104.17,171,142.67,209.85c25.55,25.8,51.46,51.23,78.67,75.29,2.68,2.36,2.21,3-.39,5.11-4.78,3.88-8.63,3.12-13.63.3-21.86-12.34-41-28.16-59.08-45.34-29.6-28.1-58.85-56.56-86.5-86.62-8.06-8.76-14.64-18.72-22.2-27.89a83.79,83.79,0,0,0-8.87-9.2c-.73-.65-1.47-1.61-2.57-.94-.87.52-.5,1.57-.49,2.41,0,5,2.39,9.17,5.28,13,9.88,12.94,20.74,25.08,31.7,37.08C102.36,214.41,142,253.89,186,288.74,191.55,293.07,197.29,297.28,204,300.26Z" transform="translate(2 2)"/><path class="cls-1" d="M310.35,226.44A268.29,268.29,0,0,1,277.09,254c1.56-3.4.4-5.26-1.42-7-52.18-49.63-100.4-103.18-152.29-153.1-19-18.32-38.44-36.22-58.83-53.07-1-.86-2-1.76-3.15-2.7A85.79,85.79,0,0,1,77,30.26c1.31-.53,2.14-.59,3,.87,22.56,37.59,54.35,66.78,86.92,95.24Q193,149.23,219.26,172c16.36,14.29,30.66,30.54,44.64,47.1a64.15,64.15,0,0,0,17.28,14.83,24,24,0,0,0,5.88,2.38,4.31,4.31,0,0,0,5-1.64c1.23-1.71.49-3.27-.59-4.79a59.2,59.2,0,0,0-8-9.45c-15-13.7-29.24-28.1-43.86-42.15-21.32-20.48-44.43-38.91-66.94-58-26.83-22.8-52.84-46.45-75.18-73.82-4.74-5.81-9.18-11.85-14.06-18.17a55.43,55.43,0,0,1,20.72-2.89c23.7,1,40.63,13.66,54.33,31.79a97.4,97.4,0,0,1,11.26,19.28c-1.89.09-2.56-1.26-3.43-2.08-12.12-11.41-23.8-23.3-36.4-34.19-6.47-5.6-13.48-10.34-22-12.41-1.17-.29-2.55-1.28-3.28.31-.62,1.37.94,1.84,1.8,2.4,10.26,6.66,19,15.1,27.6,23.65,44.39,44,87.7,89,130.85,134.17,9.33,9.77,17.32,20.77,27.54,29.72C298.69,223.5,302.79,225.57,310.35,226.44Z" transform="translate(2 2)"/><path class="cls-1" d="M252.77,269.72a36.63,36.63,0,0,1-3.23,2.16c-.94.49-1.52,1.58-2.6.47-.35-.36-.72-.71-1.07-1.06-33.71-33.76-70.11-64.57-105.71-96.27C107.25,145.72,75,115.76,46.63,81.88c-3.85-4.61-7.5-9.39-11.38-14-1.29-1.53-1.3-2.61-.07-4.11A90.45,90.45,0,0,0,41,56c1.57-2.41,2.53-1.73,4,.12,9.62,12.49,19.89,24.44,30.59,36,22.85,24.75,47.49,47.69,72,70.7,25.39,23.78,51,47.37,74.71,72.83,10,10.71,19.43,21.89,28.83,33.11A6.31,6.31,0,0,0,252.77,269.72Z" transform="translate(2 2)"/><path class="cls-1" d="M273.69,256.5c-5.14,3.3-9.53,6.14-14.36,9.25-.12-3.91-2.53-6.23-4.56-8.79-25.61-32.44-55.39-60.84-85.85-88.59-32-29.15-65-57.28-95.4-88.12C64.73,71.34,56.28,62.1,47.89,52.81c-1.66-1.84-1.53-2.75.22-4.42,8.42-8,8.37-8,16.26.12,53.12,55,105.7,110.54,160.49,163.91,14.16,13.79,28.57,27.33,42.85,41C269.27,254.93,270.81,256.36,273.69,256.5Z" transform="translate(2 2)"/><path class="cls-1" d="M314.07,222.75c-.79-1.89-1.43-3.33-3.07-4.09-10.4-4.77-18.36-12.67-25.35-21.32-23-28.49-49.56-53.69-75.25-79.67-7.3-7.39-14.71-14.68-22.09-22-1.27-1.25-2.6-2.06-.21-3.79,2.68-1.94,2.56-5.15,1.67-7.92-.81-2.49,0-4.32,1.15-6.65,5.63,13.41,15.38,23.19,25.88,32.19,36.8,31.86,75,62.09,111.39,94.43,1.41,1.25,1.5,1.7.31,3.07C323.92,212.33,319.34,217.62,314.07,222.75Z" transform="translate(2 2)"/><path class="cls-1" d="M218.1,38.86a1.73,1.73,0,0,1,.19-.28c7.6-6.42,7.54-6.35,14.64.36,29.2,27.61,57.32,56.34,87.05,83.4,11.88,10.82,24.5,20.58,39.13,27.49,1.67.79,2.48,1.46,1.56,3.61-2.08,4.9-4,9.85-6.44,14.44-15.73-13.69-33.15-25-48.85-38.67C275.83,103.57,238.43,65.5,218.1,38.86Z" transform="translate(2 2)"/><path class="cls-1" d="M343.73,186.41l-8.45,12.09c-3.72-3.58-7.32-7.19-11.06-10.62-22.63-20.71-47.41-38.78-71.31-57.93-15.61-12.45-31.81-24.3-45.36-39.15a102.45,102.45,0,0,1-13.3-18.08,3.19,3.19,0,0,1-.31-3.42,84.93,84.93,0,0,1,8.2-13.8c1,2,1.82,3.7,2.63,5.41,5.46,11.44,14.17,20.36,23.46,28.47,36.09,31.49,71.5,63.77,108.45,94.27C338.6,185.18,340.4,186.86,343.73,186.41Z" transform="translate(2 2)"/><path class="cls-1" d="M27.16,161.5c3.85,5,7.54,10.13,11.59,15,30.15,36,61.86,70.58,97.72,101.06,15.88,13.5,33.3,24.66,53.08,31.77a10.51,10.51,0,0,1,1.41.74,124.92,124.92,0,0,1-16.41,10.71,1.9,1.9,0,0,1-2.68-.21,1.33,1.33,0,0,1-.14-.19c-20.4-23.3-47-39.18-70.39-58.89-22.54-19-44-39.08-60.38-63.87C33.73,186.71,30.24,174.21,26.19,162Z" transform="translate(2 2)"/><path class="cls-1" d="M31.08,70.83c1,.09,1.26.88,1.67,1.46,26.13,36.91,58,68.52,91.14,99,37.78,34.77,74.38,70.75,111.25,106.47.63.6,2.51,1.15,1,2.5-1.11,1-2.29,2-4.08.32-9.07-8.45-18.39-16.62-27.43-25.1-30.78-28.86-60.33-59-90.67-88.31-28.19-27.24-57-53.78-88-77.81-1.64-1.27-2.11-2.25-1.32-4.29A111,111,0,0,1,31.08,70.83Z" transform="translate(2 2)"/><path class="cls-1" d="M364.05,143.1C316,110,274.05,69.65,231.13,30.19a89,89,0,0,1,11.52-5.33c2.09-.89,2.67.73,3.57,1.73,11.41,12.82,23.16,25.31,35.65,37.08,18.68,17.58,37.25,35.3,57.21,51.46,7.7,6.22,15.94,11.67,25.18,15.37,2.29.92,2.66,2.08,2,4.22C365.38,137.55,364.74,140.44,364.05,143.1Z" transform="translate(2 2)"/><path class="cls-1" d="M368.55,122.24C349,106.41,327.84,94.14,309,78.65a698.66,698.66,0,0,1-60.47-55.56c4.85-1.82,9.72-2.45,14.52-3.33,1.93-.36,2.53,1.4,3.44,2.45C289.7,48.83,316.05,72,343.55,94a137.79,137.79,0,0,0,23,14.84c1.89,1,2.88,1.91,2.51,4.26Q368.58,117.65,368.55,122.24Z" transform="translate(2 2)"/><path class="cls-1" d="M368.6,98.5C344.78,85.15,295.35,45,270.71,18.82c6,.64,10.94-.93,16.25,2.89C311.05,39,334.83,56.66,356.24,77.29c1.8,1.74,3.38,3.77,5.39,5.21C367.08,86.39,368.41,92,368.6,98.5Z" transform="translate(2 2)"/><path class="cls-1" d="M303.67,141.43c-1.56.94-1.94,0-2.45-.4-22-17.77-44-35.45-65.8-53.4-11-9.08-21.24-19-28.39-31.63-1.72-3-2-5.43.75-7.89,2.05-1.82,3.94-3.83,6.15-6,12.62,18.6,27.33,35.39,42.93,51.39S288,125.39,303.67,141.43Z" transform="translate(2 2)"/><path class="cls-1" d="M295.7,20.59c29.85,4.34,55.23,25.91,62.12,44.23C337.3,49.16,317,34.72,295.7,20.59Z" transform="translate(2 2)"/><path class="cls-1" d="M79.71,254.73c11.82,10.77,23.59,21.6,35.48,32.3a390.36,390.36,0,0,0,45.14,35.28c1,.68,2,1.39,3.09,2.12-1.3,1.78-2.47,2.13-4.41.94a326.66,326.66,0,0,1-80.24-69.74C78.63,254.85,78.9,254.5,79.71,254.73Z" transform="translate(2 2)"/><path class="cls-1" d="M330.05,165.28c6.78,3.18,13,7.54,20.71,9.31-1.39,2.48-2.65,4.72-3.94,7C341.71,175.61,335.32,171.13,330.05,165.28Z" transform="translate(2 2)"/><path class="cls-1" d="M79.71,254.73l-.94.9a6.21,6.21,0,0,1-2.19-3C78.35,252.41,78.93,253.73,79.71,254.73Z" transform="translate(2 2)"/><path class="cls-1" d="M75.64,251.86a4.5,4.5,0,0,1-2-2.81C74.88,249.64,76,250.1,75.64,251.86Z" transform="translate(2 2)"/></svg>