<svg id="Camada_1" data-name="Camada 1" xmlns="http://www.w3.org/2000/svg" viewBox="0 0 387.55 339.87"><defs><style>.cls-1{fill:#fff;stroke:#f07960;stroke-miterlimit:10;stroke-width:3px;}</style></defs><path class="cls-1" d="M392.5,148.6c-2,5.22-2.22,10.83-3.44,16.22a157,157,0,0,1-18.82,46.27c-24.8,41.2-59,73.2-98.64,99.74-2.26,1.52-4.68,2.49-4.62,6.26,0,2.87-3.07,3.67-5.44,2.43-2-1-3.22-.39-4.75.52-19.34,11.45-38.71,22.86-57,35.95-6.12,4.37-12.8,7.88-20.27,9.34-4.18.82-8.44,1.19-11.76-2.72-.88-1-2.63-1.3-4-1.92-23.54-10.91-44.67-25.55-64.13-42.54-27.44-24-50.88-51.32-68.22-83.54C16.5,206.92,6.55,177.67,8.11,145.82,10,108.06,24,76,56.25,54.16,99.87,24.53,160.47,39.44,185.92,85.65c.77,1.39,1.22,3,2.75,4.19a78.58,78.58,0,0,1,15.59-28.32c14-16.09,31.94-25.41,52.54-29.67,30.15-6.24,59-2.36,85.92,12.83,25.3,14.26,40.68,36,46.73,64.3,1.16,5.42,2,10.89,3.05,16.33v12a7.67,7.67,0,0,0,0,5.26Z" transform="translate(-6.45 -27.5)"/><path class="cls-1" d="M392.5,142.59a4.32,4.32,0,0,1,0-5.26Z" transform="translate(-6.45 -27.5)"/><path class="cls-1" d="M210.47,327.76c-2.95,3.58-5.47,3.91-9.6,1.65-47.21-25.87-87.34-60.25-122.68-100.6-14.92-17-30-33.93-47-49a3.56,3.56,0,0,1-1.46-2c-4-19.62-6-39.25-.46-59,1.73.35,2.52,1.74,3.58,2.72,40.11,37.24,77.77,76.95,116.27,115.82,25.55,25.8,51.46,51.23,78.67,75.29,2.68,2.36,2.21,3-.39,5.11-4.78,3.88-8.63,3.12-13.63.3-21.86-12.34-41-28.16-59.08-45.34-29.6-28.1-58.85-56.56-86.5-86.62-8.06-8.76-14.64-18.72-22.2-27.89A83.33,83.33,0,0,0,37.12,149c-.73-.65-1.47-1.61-2.57-.94-.87.52-.5,1.57-.49,2.41,0,5,2.39,9.17,5.28,13,9.88,12.94,20.74,25.08,31.7,37.08,37.77,41.36,77.38,80.84,121.38,115.69C198,320.57,203.74,324.78,210.47,327.76Z" transform="translate(-6.45 -27.5)"/><path class="cls-1" d="M316.8,253.94a269.13,269.13,0,0,1-33.26,27.57c1.56-3.4.4-5.26-1.42-7-52.18-49.63-100.4-103.18-152.29-153.1C110.8,103.09,91.39,85.19,71,68.34c-1-.86-2-1.76-3.15-2.7a85.87,85.87,0,0,1,15.56-7.88c1.31-.53,2.14-.59,3,.87,22.56,37.59,54.35,66.78,86.92,95.24q26.15,22.86,52.38,45.63c16.36,14.29,30.66,30.54,44.64,47.1a64.2,64.2,0,0,0,17.28,14.83,24.18,24.18,0,0,0,5.88,2.38,4.31,4.31,0,0,0,5-1.64c1.23-1.71.49-3.27-.59-4.79a58.64,58.64,0,0,0-8-9.45c-14.95-13.7-29.24-28.1-43.86-42.15-21.32-20.48-44.43-38.91-66.94-58-26.83-22.8-52.84-46.45-75.18-73.82-4.74-5.81-9.18-11.85-14.06-18.17a55.36,55.36,0,0,1,20.72-2.89c23.7,1,40.63,13.66,54.33,31.79a97.74,97.74,0,0,1,11.26,19.28c-1.89.09-2.56-1.26-3.43-2.08-12.12-11.41-23.8-23.3-36.4-34.19-6.47-5.6-13.48-10.34-22-12.41-1.17-.29-2.55-1.28-3.28.31-.62,1.37.94,1.84,1.8,2.4,10.26,6.66,19,15.1,27.6,23.65,44.39,44,87.7,89,130.85,134.17,9.33,9.77,17.32,20.77,27.54,29.72C305.14,251,309.24,253.07,316.8,253.94Z" transform="translate(-6.45 -27.5)"/><path class="cls-1" d="M259.22,297.22c-1.46,1-2.29,1.67-3.23,2.16s-1.52,1.58-2.6.47c-.35-.36-.72-.71-1.07-1.06-33.71-33.76-70.11-64.57-105.71-96.27-32.91-29.3-65.19-59.26-93.53-93.14-3.85-4.61-7.5-9.39-11.38-14-1.29-1.53-1.3-2.61-.07-4.11a88.44,88.44,0,0,0,5.85-7.79c1.57-2.41,2.53-1.73,4,.12,9.62,12.49,19.89,24.44,30.59,36,22.85,24.75,47.49,47.69,72.05,70.7,25.39,23.78,51,47.37,74.71,72.83,10,10.71,19.43,21.89,28.83,33.11A6.26,6.26,0,0,0,259.22,297.22Z" transform="translate(-6.45 -27.5)"/><path class="cls-1" d="M280.14,284c-5.14,3.3-9.53,6.14-14.36,9.25-.12-3.91-2.53-6.23-4.56-8.79-25.61-32.44-55.39-60.84-85.85-88.59-32-29.15-65-57.28-95.4-88.12-8.79-8.91-17.24-18.15-25.63-27.44-1.66-1.84-1.53-2.75.22-4.42,8.42-8,8.37-8.05,16.26.12,53.12,55,105.7,110.54,160.49,163.91,14.16,13.79,28.57,27.33,42.85,41C275.72,282.43,277.26,283.86,280.14,284Z" transform="translate(-6.45 -27.5)"/><path class="cls-1" d="M320.52,250.25c-.79-1.89-1.43-3.33-3.07-4.09-10.4-4.77-18.36-12.67-25.35-21.32-23.05-28.49-49.56-53.69-75.25-79.67-7.3-7.39-14.71-14.68-22.09-22-1.27-1.25-2.6-2.06-.21-3.79,2.68-1.94,2.56-5.15,1.67-7.92-.81-2.49,0-4.32,1.15-6.65C203,118.22,212.75,128,223.25,137c36.8,31.86,75,62.09,111.39,94.43,1.41,1.25,1.5,1.7.31,3.07C330.37,239.83,325.79,245.12,320.52,250.25Z" transform="translate(-6.45 -27.5)"/><path class="cls-1" d="M224.55,66.36a1.38,1.38,0,0,1,.19-.28c7.6-6.42,7.54-6.35,14.64.36,29.2,27.61,57.32,56.34,87.05,83.4,11.88,10.82,24.5,20.58,39.13,27.49,1.67.79,2.48,1.46,1.56,3.61-2.08,4.9-4,9.85-6.44,14.44-15.73-13.69-33.15-25-48.85-38.67C282.28,131.07,244.88,93,224.55,66.36Z" transform="translate(-6.45 -27.5)"/><path class="cls-1" d="M350.18,213.91,341.73,226c-3.72-3.58-7.32-7.19-11.06-10.62-22.63-20.71-47.41-38.78-71.31-57.93C243.75,145,227.55,133.15,214,118.3a102.45,102.45,0,0,1-13.3-18.08,3.2,3.2,0,0,1-.31-3.42A85.35,85.35,0,0,1,208.59,83c1,2,1.82,3.7,2.63,5.41,5.46,11.44,14.17,20.36,23.46,28.47,36.09,31.49,71.5,63.77,108.45,94.27C345.05,212.68,346.85,214.36,350.18,213.91Z" transform="translate(-6.45 -27.5)"/><path class="cls-1" d="M33.61,189c3.85,5,7.54,10.13,11.59,15,30.15,36,61.86,70.58,97.72,101.06,15.88,13.5,33.3,24.66,53.08,31.77a11,11,0,0,1,1.41.74A124.85,124.85,0,0,1,181,348.28a1.9,1.9,0,0,1-2.82-.4c-20.4-23.3-47-39.18-70.39-58.89-22.54-19-44-39.08-60.38-63.87-7.23-10.91-10.72-23.41-14.77-35.65Z" transform="translate(-6.45 -27.5)"/><path class="cls-1" d="M37.53,98.33c1,.09,1.26.88,1.67,1.46,26.13,36.91,58,68.52,91.14,99,37.78,34.77,74.38,70.75,111.25,106.47.63.6,2.51,1.15,1,2.5-1.11,1-2.29,2-4.08.32-9.07-8.45-18.39-16.62-27.43-25.1-30.78-28.86-60.33-59-90.67-88.31-28.19-27.24-57-53.78-88-77.81-1.64-1.27-2.11-2.25-1.32-4.29A110.26,110.26,0,0,1,37.53,98.33Z" transform="translate(-6.45 -27.5)"/><path class="cls-1" d="M370.5,170.6c-48.1-33.09-90-73.45-132.92-112.91a89.43,89.43,0,0,1,11.52-5.33c2.09-.89,2.67.73,3.57,1.73,11.41,12.82,23.16,25.31,35.65,37.08,18.68,17.58,37.25,35.3,57.21,51.46,7.7,6.22,15.94,11.67,25.18,15.37,2.29.92,2.66,2.08,2,4.22C371.83,165.05,371.19,167.94,370.5,170.6Z" transform="translate(-6.45 -27.5)"/><path class="cls-1" d="M375,149.74c-19.55-15.83-40.71-28.1-59.53-43.59A699.34,699.34,0,0,1,255,50.59c4.85-1.82,9.72-2.45,14.52-3.33,1.93-.36,2.53,1.4,3.44,2.45C296.15,76.33,322.5,99.54,350,121.47A138,138,0,0,0,373,136.31c1.89,1,2.88,1.91,2.51,4.26A91.56,91.56,0,0,0,375,149.74Z" transform="translate(-6.45 -27.5)"/><path class="cls-1" d="M375.05,126c-23.82-13.35-73.25-53.53-97.89-79.68,6,.64,10.94-.93,16.25,2.89,24.09,17.32,47.87,34.95,69.28,55.58,1.8,1.74,3.38,3.77,5.39,5.21C373.53,113.89,374.86,119.48,375.05,126Z" transform="translate(-6.45 -27.5)"/><path class="cls-1" d="M310.12,168.93c-1.56.94-1.94,0-2.45-.4-21.95-17.77-44-35.45-65.8-53.4-11-9.08-21.24-19-28.39-31.63-1.72-3-2-5.43.75-7.89,2.05-1.82,3.94-3.83,6.15-6C233,88.21,247.71,105,263.31,121S294.44,152.89,310.12,168.93Z" transform="translate(-6.45 -27.5)"/><path class="cls-1" d="M302.15,48.09C332,52.43,357.38,74,364.27,92.32,343.75,76.66,323.49,62.22,302.15,48.09Z" transform="translate(-6.45 -27.5)"/><path class="cls-1" d="M86.16,282.23c11.82,10.77,23.59,21.6,35.48,32.3a390.36,390.36,0,0,0,45.14,35.28c1,.68,2,1.39,3.09,2.12-1.3,1.78-2.47,2.13-4.41.94a326.66,326.66,0,0,1-80.24-69.74C85.08,282.35,85.35,282,86.16,282.23Z" transform="translate(-6.45 -27.5)"/><path class="cls-1" d="M336.5,192.78c6.78,3.18,13,7.54,20.71,9.31-1.39,2.48-2.65,4.72-3.94,7C348.16,203.11,341.77,198.63,336.5,192.78Z" transform="translate(-6.45 -27.5)"/><path class="cls-1" d="M86.16,282.23l-.94.9a6.24,6.24,0,0,1-2.19-3C84.8,279.91,85.38,281.23,86.16,282.23Z" transform="translate(-6.45 -27.5)"/><path class="cls-1" d="M82.09,279.36a4.49,4.49,0,0,1-2-2.81C81.33,277.14,82.45,277.6,82.09,279.36Z" transform="translate(-6.45 -27.5)"/></svg>