<?xml version="1.0" encoding="utf-8"?>
<!-- Generator: Adobe Illustrator 24.1.1, SVG Export Plug-In . SVG Version: 6.00 Build 0)  -->
<svg version="1.1" id="Camada_1" xmlns="http://www.w3.org/2000/svg" xmlns:xlink="http://www.w3.org/1999/xlink" x="0px" y="0px"
	 viewBox="0 0 400 400" style="enable-background:new 0 0 400 400;" xml:space="preserve">
<g>
	<g>
		<path d="M54.36,340.45c-12.91,1.41-17.94,17.35-8.21,26.12c10.51,9.48,25.06,3.95,34.8-3.62c9.89-7.69,14.74-24.04,1.04-30.91
			c-11.74-5.89-25.78-0.56-32.88,9.78c-4.38,6.38,6.01,12.39,10.36,6.06c3.04-4.43,8.66-6.97,14.01-6.12
			c7.09,1.12,5.55,6.99,1.29,10.81c-4,3.58-10.22,7.62-15.83,7.1c-2.01-0.19-5.04-1.26-5.81-3.37c-0.34-0.95-0.26-3.68,1.23-3.84
			C61.96,351.62,62.04,339.61,54.36,340.45L54.36,340.45z"/>
	</g>
</g>
<g>
	<g>
		<path d="M92.39,295.13c-14.28,8.35-17.11,28.54-4.19,39.63c12.4,10.64,30.8,5.65,42.06-4.05c11.73-10.11,17.52-28.34,6.93-41.41
			c-10.82-13.34-29.31-8.59-42.75-2.68c-7.05,3.1-0.95,13.45,6.06,10.36c7.25-3.19,18.56-7.39,25.73-1.83
			c8.42,6.53,3.95,18.74-2.19,24.96c-5.95,6.03-15.93,10.96-24.46,7.68c-10.11-3.89-9.9-17.17-1.14-22.3
			C105.1,301.6,99.07,291.22,92.39,295.13L92.39,295.13z"/>
	</g>
</g>
<g>
	<g>
		<path d="M148.52,221.65c-8.23,12.94-16.24,28.15-11.74,43.93c4.06,14.24,18.13,22.69,32.57,21.99
			c13.96-0.68,30.26-8.54,36.39-21.73c6.44-13.85,0.14-29.7-10.87-39.17c-12.02-10.34-30.74-19.06-46.02-10.94
			c-6.82,3.63-0.77,13.99,6.06,10.36c11.2-5.95,28.04,4.46,35.37,12.86c4.05,4.65,6.77,10.93,6.01,17.19
			c-0.76,6.25-5.53,10.89-10.65,14c-10.6,6.44-28,9.05-35.48-3.52c-7.62-12.81,1.89-28.15,8.74-38.91
			C163.04,221.17,152.66,215.14,148.52,221.65L148.52,221.65z"/>
	</g>
</g>
<g>
	<g>
		<path d="M250.46,52.87c-44.56-9.46-92.51,6.41-123.91,39.18c-7.77,8.11-14.58,17.29-19.89,27.2c-2.94,5.5-5.98,11.41-6.6,17.7
			c-0.67,6.79,1.78,13.19,4.97,19.06c11.65,21.44,32.1,37,54.34,46.22c26.77,11.1,56.51,12.8,85.11,10.71
			c25.68-1.87,51.44-6.3,75.16-16.67c11.22-4.91,21.71-11.26,31.09-19.15c10.4-8.75,18.61-19.61,26.43-30.64
			c7.76-10.94,16.25-22.44,15.91-36.52c-0.32-13.24-7.24-25.41-16.03-34.95c-19-20.61-47.23-30.2-74.64-31.95
			c-33.5-2.15-66.49,7.55-98.27,16.88c-7.39,2.17-4.25,13.75,3.19,11.57c46.21-13.57,100.38-28.86,144.79-1.5
			c9.29,5.72,17.84,13.38,23.44,22.82c6.84,11.54,6.96,23.15,0.04,34.64c-12.29,20.44-27.85,39.78-48.74,51.79
			c-19.47,11.19-41.77,16.84-63.88,19.81c-25.74,3.46-52.72,4.4-78.19-1.38c-21.86-4.96-42.72-15.24-58.02-31.89
			c-6.44-7.01-16.4-18.73-14.61-28.92c0.89-5.09,4.04-10.22,6.59-14.65c2.66-4.62,5.62-9.08,8.92-13.26
			c27.72-35.11,75.57-53.88,119.61-44.53C254.8,66.04,258.02,54.47,250.46,52.87L250.46,52.87z"/>
	</g>
</g>
</svg>
