<svg id="Camada_1" data-name="Camada 1" xmlns="http://www.w3.org/2000/svg" viewBox="0 0 302.78 296.82"><defs><style>.cls-1{fill:#fff;}</style></defs><path class="cls-1" d="M183.06,336.49c16.39-8.76,7.64-27.24-3.19-36.48-13-11.07-28-20.08-42.64-29.17s-29-18.15-41.17-29.84a90.12,90.12,0,0,1-25.48-45.77C63.1,162,70.1,123.1,90.48,94.57c19-26.52,57.78-44.66,91.78-31.08,29.56,11.82,41,52.24,14.2,72l14.26,13.05c15.9-17.64,33-37.46,57.18-45.74,21.53-7.37,46.08-4.15,57.9,15.46,13.13,21.78-2.32,41.19-16.34,58.65q-25.62,31.92-53,62.61-31.2,35-64.53,68.31c-8.73,8.74,5.48,21.81,14.26,13,45.45-45.52,88.95-93.29,127.84-143.68,16.29-21.09,23.52-45.54,8.63-69.15-14.07-22.31-41.52-30.87-68.39-26.06-33.59,6-57,30.53-77.77,53.51-8.33,9.24,4.13,20.47,14.26,13.05,26.49-19.48,26.46-57.65,7.42-81.58-23.37-29.39-68.3-31.74-102-17.26-37.61,16.17-58.58,53.59-65.3,89.62-7.12,38.22-1.93,79.15,26,109.7,14,15.27,32.32,26.68,50.18,37.79,9.1,5.65,18.29,11.22,27,17.38a114.52,114.52,0,0,1,13.42,10.49,17,17,0,0,1,3.37,4.07,8.27,8.27,0,0,1,1.25,3q0,2.28.8-1.06c-11.21,6-1.09,21.89,10.14,15.89Z" transform="translate(-48 -41)"/></svg>