<svg id="Camada_3" data-name="Camada 3" xmlns="http://www.w3.org/2000/svg" viewBox="0 0 377 392.47"><defs><style>.cls-1{fill:#5e5e5e;}.cls-2{fill:#787878;}.cls-3{fill:#575757;}.cls-4{fill:#9a9a9a;}.cls-5{fill:#b8b8b8;}.cls-6{fill:#818181;}.cls-7{fill:#ababab;}.cls-8{fill:#7b7b7b;}.cls-9{fill:#a4a4a4;}.cls-10{fill:#2c2c2c;}.cls-11{fill:#434343;}.cls-12{fill:#444;}.cls-13{fill:#6f6f6f;}.cls-14{fill:#b4b4b4;}.cls-15{fill:#868686;}.cls-16{fill:#e6e6e6;}.cls-17{fill:#5b5b5b;}.cls-18{fill:#e3e3e3;}.cls-19{fill:#e0e0e0;}.cls-20{fill:#4b4b4b;}</style></defs><path class="cls-1" d="M204.94,7.07c-1.79,1.13-3.58,1.4-5.37,0Z" transform="translate(-7.98 -7.07)"/><path class="cls-2" d="M221.85,7.73l-2.28,0c-.28-.12-.39-.25-.31-.4s.17-.23.26-.23h2.3c.24.14.33.28.26.43S221.93,7.73,221.85,7.73Z" transform="translate(-7.98 -7.07)"/><path class="cls-3" d="M219.52,7.07c0,.21,0,.42,0,.63-.67.15-1.28.14-1.59-.63Z" transform="translate(-7.98 -7.07)"/><path class="cls-4" d="M221.85,7.73a3.65,3.65,0,0,1,0-.66h1.54C223.18,8.05,222.49,7.81,221.85,7.73Z" transform="translate(-7.98 -7.07)"/><path d="M384.52,188.83a191.62,191.62,0,0,0-12.67-57c-15.05-38.75-37.19-72.3-71.56-96.79a164,164,0,0,0-50.55-24.26c-7.91-2.27-16-2.8-24.08-3.76h-2.3c-.5.53-1.15.36-1.75.4h-1.88c-.6,0-1.25.13-1.75-.4h-13a7.87,7.87,0,0,1-5.37,0h-.77a1.5,1.5,0,0,1-1,.39c-15,0-29.43,3.17-43.79,6.89A194,194,0,0,0,25.55,122.42C16,143.55,9.87,165.61,8.4,188.75c-1.65,26,1.48,51.49,10.46,76.05,12.53,34.27,31.87,64,59.2,88.52,15.44,13.83,32.4,25.25,51.49,33.45,23.21,10,47.18,14,72.27,9.36,2-.35,3.45-.22,4.61,1.64s2.94,1.93,4.78,1.69a29.87,29.87,0,0,0,5.95-1.38c21.21-7.28,41.77-16.05,61.18-27.29,21.55-12.47,41.33-27.18,58.12-45.79a192.92,192.92,0,0,0,37.86-62C383.31,239,386.2,214.16,384.52,188.83ZM305,175.55c-.13,18.5.11,37-1,55.5a207.72,207.72,0,0,1-6.6,41.83c-5.35,19.61-18.49,31.12-37.9,35.9-18,4.42-36.26,4-54.54,3.53a558.17,558.17,0,0,1-64.18-5.07c-17-2.43-31.95-8.93-41.62-24.12-6.27-9.84-8.35-20.94-9.34-32.34-1.64-19.05.65-38,2-56.93,1.41-20.11,3.62-40.19.57-60.32a7.1,7.1,0,0,1,1.48-5c6.27-9.92,14.75-16.88,26.17-20.44a145.66,145.66,0,0,1,35-5.94c14.42-.83,28.87-1.22,43.3-1.81,16.88-.84,33.75-1,50.57,1,11.05,1.29,22.09,2.79,31.76,8.92,12.57,8,18.7,20.06,21.78,34.14C304.61,154.66,305,165.09,305,175.55Z" transform="translate(-7.98 -7.07)"/><path class="cls-5" d="M70.82,118.86c.21-1.71,1.1-2.35,2.63-2.86C73.35,117.76,72.7,118.59,70.82,118.86Z" transform="translate(-7.98 -7.07)"/><path class="cls-6" d="M38.31,195.55c0,1.76.68,3.18-1,4.33A3.47,3.47,0,0,1,38.31,195.55Z" transform="translate(-7.98 -7.07)"/><path class="cls-7" d="M81.69,257.6c.83,1.19,1.57,2.42.85,4.25C80.65,260.52,81.7,259,81.69,257.6Z" transform="translate(-7.98 -7.07)"/><path class="cls-8" d="M171.17,386.3l5.81,1c-2.66.44-4.28.74-5.8-.41-.26-.12-.35-.25-.27-.38S171.08,386.3,171.17,386.3Z" transform="translate(-7.98 -7.07)"/><path class="cls-9" d="M203.6,80a8.4,8.4,0,0,1,4.57.18c-1.32.72-2.67.45-4,.53C203.47,80.91,203.28,80.67,203.6,80Z" transform="translate(-7.98 -7.07)"/><path class="cls-10" d="M18.53,213.07c-1.3-.84-1.93-1.87-1.15-3.51Z" transform="translate(-7.98 -7.07)"/><path class="cls-11" d="M167.45,386.76l-4.61-1c2-.41,3.36-.8,4.51.54Z" transform="translate(-7.98 -7.07)"/><path class="cls-12" d="M203.6,80l.61.71a3.06,3.06,0,0,1-3.29.43A4.1,4.1,0,0,1,203.6,80Z" transform="translate(-7.98 -7.07)"/><path class="cls-13" d="M17.82,219.91a8.94,8.94,0,0,1,.46-4.66l.35,4.73A.53.53,0,0,1,17.82,219.91Z" transform="translate(-7.98 -7.07)"/><path class="cls-12" d="M17.82,219.91l.81.07a1.14,1.14,0,0,1,.42,1.55c-.12.21-.69.44-.82.34C17.58,221.36,17.73,220.62,17.82,219.91Z" transform="translate(-7.98 -7.07)"/><path class="cls-14" d="M64.19,287.54c-1.11-1.18-1.62-2.05-.92-3.29C64.09,285.16,65,286,64.19,287.54Z" transform="translate(-7.98 -7.07)"/><path class="cls-15" d="M167.45,386.76c0-.17-.06-.34-.1-.5l3.82,0c0,.2,0,.39,0,.59Z" transform="translate(-7.98 -7.07)"/><path d="M105.38,206.16c0-5.74.06-11.48,0-17.22,0-3.59,1.58-5.41,5.16-5.76,8-.78,15.87-2.78,24-1.61.92.14,1.94-.47,2.93-.65,3.68-.69,4.71.23,4.72,4a16,16,0,0,0,1.15,6c1.83,3.76.45,7,0,10.42-4,30.45,15.52,55.69,46,59.34,13.13,1.58,25.87.3,37.65-5.78,18.1-9.33,26.15-24.93,26.52-44.88a74.31,74.31,0,0,0-2.12-18.18c-1.29-5.64,1.31-8.63,6.84-7.68a46.67,46.67,0,0,0,16.75-.4c2.08-.39,4.85-.11,4.87,1.71.05,5,4.29,8,4.72,13,1.42,16,3.25,32,2.4,48.09a119,119,0,0,1-4.15,25.59c-4.62,16.69-16.43,24.21-32.65,26.79-15.54,2.48-31.09,1.47-46.65.59-12.12-.69-24.25-1.34-36.36-2.15a102.23,102.23,0,0,1-24-4.68C126.4,287.32,117.33,275,112,259c-4-12.1-5.51-24.57-6.24-37.18-.3-5.21,0-10.45,0-15.69Z" transform="translate(-7.98 -7.07)"/><path d="M229.64,211.88c-.61,18.08-17.79,23.59-31.92,23.06-12.91-.49-23.62-5.63-29.27-18-6.09-13.37-1.28-32.6,10.88-40.85,6.5-4.4,14.39-7.58,22.42-6.72,11.32,1.22,18.71,8.79,23.68,18.49C228.71,194.22,230.17,201.23,229.64,211.88Z" transform="translate(-7.98 -7.07)"/><path d="M242.15,142.17c.29-5.21.56-10.43.87-15.64.19-3,.08-5.32,4.95-5,3.33.25,7.15-1.89,11-2.14,5-.33,9.94.24,14.91.25a4.15,4.15,0,0,1,4.44,4.35c-.08,11.4,3,22.76.34,34.22-.8,3.49-2.38,5.4-6,5.85-3.41.43-6.77,1.23-10.18,1.64-3.62.44-7.09.07-10.1-2.43-1.75-1.46-4.09-1.21-6.2-1.49-3.08-.42-4.46-2.09-4.44-5.13,0-4.84,0-9.68,0-14.52Z" transform="translate(-7.98 -7.07)"/><path class="cls-16" d="M260,285.73c-2.43,1.54-4.58,2.63-7.29,2C255.12,287.39,256.33,283.31,260,285.73Z" transform="translate(-7.98 -7.07)"/><path class="cls-17" d="M261.18,257.81c.48,1.36.92,2.7-.65,3.88C260.79,260.18,261,259,261.18,257.81Z" transform="translate(-7.98 -7.07)"/><path class="cls-18" d="M135.93,194.71a3.51,3.51,0,0,1-.77,2.89,2,2,0,0,1,0-2.91A.49.49,0,0,1,135.93,194.71Z" transform="translate(-7.98 -7.07)"/><path class="cls-19" d="M135.93,194.71l-.78,0c.19-.8,0-2.34,1-2.08C137.29,192.91,136.32,194,135.93,194.71Z" transform="translate(-7.98 -7.07)"/><path class="cls-20" d="M201.12,226.51l4.22-1.33C204.13,227.13,203,227,201.12,226.51Z" transform="translate(-7.98 -7.07)"/></svg>