<svg id="Camada_2" data-name="Camada 2" xmlns="http://www.w3.org/2000/svg" viewBox="0 0 339.38 258.08"><defs><style>.cls-1{fill:none;stroke:#fff;stroke-miterlimit:10;stroke-width:16px;}</style></defs><path class="cls-1" d="M24.89,83.52" transform="translate(-0.01 -0.02)"/><path class="cls-1" d="M25.89,170.52" transform="translate(-0.01 -0.02)"/><path class="cls-1" d="M35.89,15.52c51-20,228.36,9.58,275-6,2.06-.69,8.46-3,13,0,9.32,6.23,2.47,34.28,2,66-.3,19.91,7.49,29.21,5,45-6,38-4,80-13,113-19,17-206,23-300,3" transform="translate(-0.01 -0.02)"/><path class="cls-1" d="M30.89,16.52c51-20,228.36,9.58,275-6,2.06-.69,8.46-3,13,0,9.32,6.23,2.47,34.28,2,66-.3,19.91,7.49,29.21,5,45-6,38-4,80-13,113-19,17-206,23-300,3-13.16-2.8,4-15.9,8-66,3.39-42,5.08-62.93-1-87-7.65-30.29-4.18-51.58,6.5-65.5C29.45,15,28,17.65,30.89,16.52Z" transform="translate(-0.01 -0.02)"/><path class="cls-1" d="M35.89,15.52c8.59,8.45,26.16,29.18,42,47,29.46,33.15,36.35,46.24,58,59,11.52,6.79,30.57,18,53,14,6.35-1.14,17.15-4.25,42-27,13.28-12.16,75.5-69.78,94-96" transform="translate(-0.01 -0.02)"/><path class="cls-1" d="M324.89,12.52" transform="translate(-0.01 -0.02)"/><path class="cls-1" d="M317.89,233.52c-12.49-21.86-40.15-51.57-65-77-10.87-11.13-38-34-38-34" transform="translate(-0.01 -0.02)"/><path class="cls-1" d="M16.89,229.52c18.29-13.47,51.74-34.53,72-53,20.68-18.86,68.69-62.11,45-46" transform="translate(-0.01 -0.02)"/></svg>