<svg id="Camada_3" data-name="Camada 3" xmlns="http://www.w3.org/2000/svg" viewBox="0 0 368.74 389.63"><defs><style>.cls-1{fill:none;}.cls-1,.cls-2,.cls-3,.cls-4,.cls-5,.cls-6,.cls-7{stroke:#f07960;stroke-miterlimit:10;stroke-width:7px;}.cls-2{fill:#fefefe;}.cls-3{fill:#fdfdfd;}.cls-4{fill:#fcfcfc;}.cls-5{fill:#fbfbfb;}.cls-6{fill:#f8f8f8;}.cls-7{fill:#bfbfbf;}</style></defs><path class="cls-1" d="M228.82,391.93H212.4c-3.52-.84-7.15-.6-10.69-.64-11.72-.13-23.25-2.15-34.87-3.2-3.59-.33-7.16-.78-10.74-1.2-7.54-.9-9.64-5-5.89-11.42a7.83,7.83,0,0,0,1.12-2.75c1.63-10.69,5.29-21,5.83-31.9a34.9,34.9,0,0,0-1.07-11.44c-1.9-6.67-8.07-9.39-14.38-6.6-6,2.65-9.72,7.62-13.09,12.89a50.8,50.8,0,0,0-5.32,10.66,41,41,0,0,1-2.28,5.11c-3,5.73-6.27,6.85-12.22,4.1a5.43,5.43,0,0,0-3.17-.9c-3.76.61-6.79-1-9.69-3.07a148.36,148.36,0,0,1-26.12-23.25C64.24,322,58,316.21,53.1,309.28A12.2,12.2,0,0,0,50.19,307c-3.31-2.48-3.52-4.67-.66-7.74,3.88-4.18,8.35-7.82,11.3-12.85,3.7-6.3,4.56-12.8,1.84-19.67a13.17,13.17,0,0,0-11.88-8.82,42.65,42.65,0,0,0-15.54,1.33,6.47,6.47,0,0,1-6.8-1.74,20.09,20.09,0,0,1-5.3-8,54.93,54.93,0,0,1-2.45-25,53.77,53.77,0,0,0,.32-6.7,261,261,0,0,1,1.59-30.5c.66-5.61,2.3-11,6.1-15.4a13.52,13.52,0,0,0,2.13-4.72c.89-2.58,1.51-5.28,3.11-7.57,2.94-4.21,6.62-4.82,10.36-1.39a5.89,5.89,0,0,0,6.11,1.47c3-.81,6-1.56,9-2.58,6.24-2.17,9.38-7.43,8.37-14-.78-5.06-3.06-9.41-6-13.53C56.44,122,49.32,116,43.08,109.28a3.72,3.72,0,0,0-.57-.48C36,104.06,35.3,100,39.88,93.23,44,87.14,49.26,82,54.18,76.53c7.27-8,14.84-15.73,22-23.86,2.67-3.05,5.64-6.92,10-6.42,7,.8,14.42.94,19.37,8,3.61,5.19,9.16,8.68,14.84,11.65,14.37,7.5,27.77-4.49,29-15.86a44.68,44.68,0,0,0-.2-11.9c-1-6.09-1.2-12.38-4.29-18-1.36-2.49-.29-4.56,2.68-6,5-2.4,10.51-2.91,16-3.24,5.85-.36,11.67.68,17.49.65,13.42-.05,26.81-.87,40.17-2.11a47.46,47.46,0,0,1,10.39.29c3.54.44,5.81,3.62,5.45,7.68-.64,7.31-1.51,14.59-2.43,21.86a40.73,40.73,0,0,0,1.67,19.15c3.64,10.07,11.3,13,20.7,7.78a66,66,0,0,0,17.84-15.11c1.22-1.42,2.45-2.81,3.74-4.16,3.12-3.27,6.76-3.64,11-2.53,9.69,2.55,18.12,7.5,25.93,13.54,11,8.53,21.6,17.6,32,26.89,5.05,4.53,8.85,10,9.33,17.28.31,4.59-1.44,7.7-5.45,9.64a71.76,71.76,0,0,0-14.42,9.89,55.45,55.45,0,0,0-9.59,10.88,13.26,13.26,0,0,0-1.1,1.94c-3.41,7-1.35,12.22,6,14.65A55.14,55.14,0,0,0,349,152c7,.06,13.93,0,20.9,0a11.29,11.29,0,0,1,8.46,3.2c3.89,3.86,4.58,6.34,2.16,11.34a32.6,32.6,0,0,0-3,13.71c-.6,21.42-2.22,42.71-9,63.25a6.22,6.22,0,0,0,0,4.72,4.5,4.5,0,0,1,.09,4c-1.41,2.87-4.82,3.32-6.77,5.69-2.37,2.89-5.35,1.85-8.09.21-2.15-1.28-4.4-.38-6.58-.3A50.88,50.88,0,0,0,330.41,261c-6.71,2.6-9.48,6.67-9.51,13.59,0,7.73,2.45,11.63,9.31,14.47a47.22,47.22,0,0,0,13,3.47c8.85.94,13,7.07,16,14.29,1.27,3,.47,6-1.51,8.79-3.95,5.56-9.36,9.64-14.31,14.12a215,215,0,0,1-31,23.87,45.32,45.32,0,0,1-10.79,5c-3.82,1.16-7.35.84-10.5-1.86-4.64-4-9.14-8.05-13.6-12.2-5.36-5-11.14-9.18-19-9.16-6.23,0-10.66,2.93-13.68,8.17-3.2,5.52-4.34,11.62-4.49,17.91-.13,5.22.26,10.48-2.57,15.24-.56.94-.15,1.9.13,2.87,2.31,7.82-.17,11.32-8.41,12A1.16,1.16,0,0,0,228.82,391.93Z" transform="translate(-16.73 -5.8)"/><path class="cls-2" d="M251.52,198.3c-1,21.61-8.32,40.3-26.53,53.13-29.65,20.88-72.22,2-76.89-34-3.1-23.92,6.73-42,26.39-55.14a98.89,98.89,0,0,1,25.56-11.83c1.56-.49,2.63-.59,4,.6,2.42,2.11,5.61,1.86,8.55,1.88,13.36.07,32,12.88,35.85,26.7C250.15,185.75,251.51,191.88,251.52,198.3Z" transform="translate(-16.73 -5.8)"/><path class="cls-2" d="M168.31,146.25c-3.14,2.53-6.38,5-9.39,7.63a77.58,77.58,0,0,0-14.26,16.67c-1,1.57-1.61,2.42-3.58.9-21.26-16.39-42.61-32.66-63.87-49a24,24,0,0,1-3.84-4.52c-5.84-7.47-12.6-14-19.6-20.56a3.26,3.26,0,0,1,.44-.7c6.1-6.34,6.11-6.35,12.8-.5,23.21,20.3,46.95,39.95,72.22,57.69,2.32,1.63,4.69,3.39,7.16,1,2-1.94.8-5.08-2.58-7.38-26.74-18.19-51.87-38.51-77.47-58.23-2-1.56-2.61-2.46-.23-4.22,2.78-2,5.23-6.15,8-6.26s4.86,4.43,7.26,6.9c14.6,15.08,31.31,27.6,48.23,39.86,10.57,7.66,21.44,14.81,33.48,20,1.75.75,3.44,1.34,5.35.8Z" transform="translate(-16.73 -5.8)"/><path class="cls-2" d="M360.74,215c-9.77-8.42-19.2-16.09-29-23.28-28.46-20.88-58.91-38.69-88.82-57.32-24.67-15.36-49.18-31-71.73-49.4-4.42-3.62-8.67-7.46-13.09-11.07-1.47-1.2-1.7-2.09-.35-3.5a21.36,21.36,0,0,0,2.64-3.6c3.11-5,3.12-5.07,7.32-1.08,30.51,29,65.3,52.26,100.73,74.62,30.23,19.07,60.85,37.51,90.47,57.54,2.19,1.48,3.33,2.87,2.89,5.65C361.23,207,361.11,210.64,360.74,215Z" transform="translate(-16.73 -5.8)"/><path class="cls-2" d="M144.33,80.77c1.72-.92,3.18-1.59,4.53-2.43,5-3.07,5-3.12,9.09.85,24.22,23.45,51.44,43,79.61,61.32C268.87,160.9,301,180,331.65,201.43c8.87,6.2,17.51,12.68,26.09,19.26a3.57,3.57,0,0,1,1.61,4.07c-.55,2.55-1,5.12-1.41,7.69-.22,1.48-.8,1.68-1.93.88-.41-.29-.79-.61-1.18-.91-30.64-23.57-62.77-45-94.74-66.71a17,17,0,0,1-4.69-4.65A50.75,50.75,0,0,0,224,139.41a19.94,19.94,0,0,1-7-3.21C192.14,118.78,167.84,100.68,144.33,80.77Z" transform="translate(-16.73 -5.8)"/><path class="cls-2" d="M39.28,198.26c22.88,28.11,51.57,48.21,81,67.3C151,285.5,181,306.65,211,327.66c5.09,3.56,10.16,7.18,16.3,8.72,1.67.42,1.43,1.1.93,2.3a37.6,37.6,0,0,0-3,9.95c-.38,3.12-1.49,2.31-3.2,1Q204.09,336.32,186.09,323c-41.06-30.36-82.74-59.88-122.52-92-8-6.47-15.89-13.16-23.93-19.62-1.86-1.49-2.73-2.85-2-5.28S38.67,201.35,39.28,198.26Z" transform="translate(-16.73 -5.8)"/><path class="cls-2" d="M40.52,183.59c8.9,6.94,17.56,13.55,26,20.36,29.57,23.72,58.27,48.52,88.69,71.17,25.15,18.73,51.42,35.57,80.05,48.53.78.35,1.54.78,2.6,1.32-2,2.06-4.16,3.73-5.55,6-.94,1.56-2.11.78-3.24.45-6.72-2-12.79-5.38-18.69-9a184.11,184.11,0,0,1-22.78-16.79c-17.37-14.93-36-28.06-55.11-40.71C110.81,250.51,89,236.14,68.73,219.7q-14.21-11.5-27.25-24.33c-.89-.89-1.67-1.68-1.51-3.16C40.26,189.54,40.33,186.84,40.52,183.59Z" transform="translate(-16.73 -5.8)"/><path class="cls-2" d="M151.87,258.33Q124.52,238,97.18,217.63c-17.32-12.92-34.83-25.58-52.67-37.78-1.43-1-2.87-1.64-2.13-4s2.42-2,4.08-1.82a32.62,32.62,0,0,0,12.9-1.19,5.84,5.84,0,0,1,5.78,1.09C88.89,191,110.79,210.31,133.22,229a7.12,7.12,0,0,1,2.25,3.3c3.4,10,9.43,18.22,17.18,25.27C152.79,258.24,152.62,258.59,151.87,258.33Z" transform="translate(-16.73 -5.8)"/><path class="cls-2" d="M310.24,150.28c-28.11-18-57-33.25-84.77-50.35C205.12,87.4,185.56,73.79,167.8,57.72c-1.72-1.55-2.61-2.85-1.9-5.34.77-2.69.8-5.59,1.2-8.78,7,5.68,13.77,11.26,20.65,16.71a831.48,831.48,0,0,0,116.12,77.36c3,1.65,5.45,3.16,5,7.22C308.67,146.35,309.6,148,310.24,150.28Z" transform="translate(-16.73 -5.8)"/><path class="cls-2" d="M159.36,262.79A71,71,0,0,0,190.53,274a6.37,6.37,0,0,1,3.11,1.09c25,17.59,52.87,29.82,79.88,43.67a349.67,349.67,0,0,1,35.37,20.49c-3,2.17-5.94,4.17-8.76,6.28-1.9,1.42-2.35-.42-3.06-1.32-5.4-6.87-11.25-13.27-18.53-18.22-9.15-6.23-19-8.91-30-6a4.81,4.81,0,0,1-3.87-.47c-30-16.7-58.35-35.83-86-56.13C158.57,262.8,158.64,262.44,159.36,262.79Z" transform="translate(-16.73 -5.8)"/><path class="cls-2" d="M164.61,28.54,203,51.84c3,1.8,5.89,3.7,8.92,5.4,5.84,3.29,10.49,7,13.67,13.67,4.77,10,13.54,15.71,25.4,14.72a6,6,0,0,1,4.37,1.55c12,9.22,24.51,17.82,37.25,26a54,54,0,0,0,15.07,7.16c1,.25,1.93.48,2.9.64,1.41.23,2.79.15,3.67-1.18,1-1.5.32-2.72-1.29-3.91,4.61,1,4.65,1,2.32,4.45-1.76,2.57-3.62,5.1-4.46,8.12-.77,2.74-1.82,2.67-4,1.28-20.68-13-41.48-25.9-62.13-39C219,74.45,193.85,57.31,169.05,39.68c-1.74-1.23-2.89-2.46-3.05-4.73A44.84,44.84,0,0,0,164.61,28.54Z" transform="translate(-16.73 -5.8)"/><path class="cls-2" d="M133.69,194.68c-17-11.87-33.86-23.65-51.3-34.62-.88-.55-1.7-1-1.09-2.32,3.21-6.93,3.17-14.16,1.66-21.69,1.71.26,2.54,1.43,3.51,2.24q24.66,20.47,50.22,39.82c2.15,1.63,2.32,2.8,1.28,5.1C136.32,186.89,135.12,190.78,133.69,194.68Z" transform="translate(-16.73 -5.8)"/><path class="cls-2" d="M93,58.64c4.77,7.55,10.46,13.68,17.78,18.2,8.11,5,16.83,7.23,26.32,5.7a3.94,3.94,0,0,1,4,1.11,630.9,630.9,0,0,0,59.43,52.7,8,8,0,0,1,.9,1.05c-3.73.25-7.13.44-10.52.72a3.37,3.37,0,0,1-2.6-1.17c-20.85-18-44.23-32.52-66.7-48.3C111.86,81.86,102.3,75,93.28,67.31,88.91,63.6,88.87,63.64,93,58.64Z" transform="translate(-16.73 -5.8)"/><path class="cls-2" d="M36.67,216.31c35.48,32,72.86,61.28,112.14,89.58-3.65.24-6.56.3-9.33,1.16a1.68,1.68,0,0,1-1.67-.22c-18.42-12.59-37.36-24.35-56.47-35.83-1.91-1.15-3.14-2.27-3.3-4.8-.63-9.89-5.65-17-14.51-21.31a37.51,37.51,0,0,1-7.64-5.15c-5-4.14-9.9-8.34-15.2-12C36.54,224.87,34.23,221.8,36.67,216.31Z" transform="translate(-16.73 -5.8)"/><path class="cls-2" d="M168.38,146.32c2-3.12,1.06-5.1-1.86-7.28-9-6.71-18.61-12.34-28.22-18a302.24,302.24,0,0,1-58-44.13c-2.17-2.12-1.79-3,.19-4.76,5.11-4.53,5-4.65,10,.21,20.67,20.26,44.05,37.12,67.59,53.77,7,4.93,14,9.72,21.49,14.87l-11.29,5.27Z" transform="translate(-16.73 -5.8)"/><path class="cls-2" d="M341.2,310.45c-2,1.76-4.17,3.44-6.08,5.33-1.1,1.09-1.74.85-2.71-.07-8.17-7.8-18-13.1-27.67-18.74-20.07-11.75-39-25.19-57.39-39.38-1.6-1.24-2.19-2.15-.41-3.61a11.26,11.26,0,0,0,1.48-1.67c1.4-1.72,2.68-4.73,4.2-4.85,2.23-.18,3.85,2.7,5.77,4.24,14.72,11.81,29.4,23.69,45.58,33.52,1,.63,2.24,1.06,2.77,2.36,4.45,10.95,13.92,15.62,24.18,19.28a47.28,47.28,0,0,0,9.35,2.43Z" transform="translate(-16.73 -5.8)"/><path class="cls-2" d="M132.1,217.69a600,600,0,0,0-65.59-47c4.28-2.54,8.74-4.14,11.84-7.87,1.23-1.47,2.17.44,3,1,12.35,9,24.64,18,36.44,27.68,4.12,3.39,8.42,6.55,12.68,9.76,1.12.85,2.15,1.53,1.86,3.25C131.62,208.54,131.81,212.65,132.1,217.69Z" transform="translate(-16.73 -5.8)"/><path class="cls-2" d="M201.73,274.78c9.2-.41,17.16-2.06,24.67-5.54a2.29,2.29,0,0,1,2.93.57c22.86,20.69,49.37,36.25,74.92,53.16,3.72,2.46,7.69,4.51,11.54,6.79.79.46,2.32.68,2.14,1.59-.29,1.47-1.87,2.22-3,3.11s-1.73-.47-2.34-1a129.44,129.44,0,0,0-12.43-10.09c-17-12.06-36-20.32-55-28.52C230.82,288.66,216.41,282.7,201.73,274.78Z" transform="translate(-16.73 -5.8)"/><path class="cls-2" d="M328.9,321.14c-.08.37-.06.52-.14.61-4.05,4.68-4.05,4.68-8.94,1.12-13.19-9.6-28-16.53-41.82-25-14.83-9.1-29.48-18.44-43.29-29l-2.7-2.1c2.82-2.08,5.48-3.87,7.94-5.91,1.52-1.26,2.21-.07,3.05.65,16.06,13.77,33.5,25.74,50.44,38.35C304.57,308.07,315.63,316.5,328.9,321.14Z" transform="translate(-16.73 -5.8)"/><path class="cls-2" d="M78.25,273.25c18,12.28,34.65,25.69,53.26,37.08a62.06,62.06,0,0,0-9.61,7.5c-1.37,1.39-2.26-.12-3.13-.7-9.28-6.2-18.35-12.73-27.9-18.53a107.81,107.81,0,0,0-15.07-8c-2.15-.88-2.06-1.75-1.19-3.47A39.14,39.14,0,0,0,78.25,273.25Z" transform="translate(-16.73 -5.8)"/><path class="cls-2" d="M264.78,182.58c9.08,5.92,17.76,11.66,26.51,17.28q31,19.94,62.09,39.72c2.12,1.35,2.41,2.56,1.73,4.79s-1.5,2.26-3.1,1c-24.88-19.53-53-33.49-81.47-46.68-3.09-1.43-4.59-3-4.52-6.55C266.08,189.12,265.27,186.09,264.78,182.58Z" transform="translate(-16.73 -5.8)"/><path class="cls-2" d="M339.06,101c-3.17,3-5.64,1.94-8.65-.19-14.71-10.42-29.6-20.57-42-33.91-2-2.2-2.21-3.41-.22-5.68,4.15-4.71,4-4.8,8.75-.51,9.72,8.7,20.62,16,29.71,25.48C331.16,90.86,335.73,95.44,339.06,101Z" transform="translate(-16.73 -5.8)"/><path class="cls-2" d="M335.53,246.13a52.64,52.64,0,0,0-11.33,1.71,3.47,3.47,0,0,1-3.1-.81c-17-12.29-35.64-22.08-52.82-34.12-1.89-1.32-3.28-7.49-1.9-9.24,1.08-1.37,2,.18,2.74.63q16.08,9.7,32.09,19.56c10.65,6.59,21.23,13.3,31.83,20C333.91,244.4,335.17,244.58,335.53,246.13Z" transform="translate(-16.73 -5.8)"/><path class="cls-2" d="M223.69,371.15c-9.67-7.44-18.63-14.3-27.57-21.21-7.36-5.7-14.62-11.54-22.67-16.27-1.35-.8-2.36-1.69-2.48-3.4a32.86,32.86,0,0,0-2.48-9.7c1.34-.18,1.95.72,2.68,1.23,16.71,11.4,33.38,22.86,50.13,34.2a4.78,4.78,0,0,1,2.45,4.84C223.53,364,223.69,367.22,223.69,371.15Z" transform="translate(-16.73 -5.8)"/><path class="cls-2" d="M260,233c4.09,3.39,7.83,6.63,11.73,9.68,10.18,8,20.72,15.37,32.67,20.52.61.26,1.78.34,1.6,1.27-.66,3.41-1,6.86-1.42,10.29-.23,1.71-1.56.3-2.21-.09-4.24-2.57-8.39-5.29-12.65-7.83-11.1-6.6-21.82-13.74-32.32-21.26-2.39-1.72-2.51-3-1.05-5.25A77,77,0,0,0,260,233Z" transform="translate(-16.73 -5.8)"/><path class="cls-2" d="M220.62,376.32c-5.51,0-11,0-16.55,0a4.63,4.63,0,0,1-2.07-.64C191.56,370,181.58,363.78,174.42,354c-1.24-1.7-2.63-2.4-4.8-1.62.66-4.74,1.27-9.15,1.94-13.94,16.95,11.82,30.27,28.15,49.33,36.83Z" transform="translate(-16.73 -5.8)"/><path class="cls-2" d="M264.76,217.54c16.11,12.67,33,23.38,49.69,34.3-.1.28-.12.57-.28.71-4.76,4.52-4.78,4.54-10.41,1.13C291,246,278.19,238.45,266,229.87c-3.05-2.14-4.2-4.07-2.7-7.5A45.17,45.17,0,0,0,264.76,217.54Z" transform="translate(-16.73 -5.8)"/><path class="cls-2" d="M325.69,109.16c-1.37.65-1.95,3-4.25,1.64C305.16,101,289,90.92,275.58,77.17c-1.25-1.28-1.35-1.89,0-3.18,5.51-5.2,5.36-5.17,10.69.34C297.8,86.26,310.54,96.81,323.62,107,324.35,107.52,325.4,107.85,325.69,109.16Z" transform="translate(-16.73 -5.8)"/><path class="cls-2" d="M67,298.35c5.41-6.29,5.48-6.39,12.21-1.51,9.74,7.08,19.35,14.32,29.05,21.46a22.54,22.54,0,0,0,5,3.14c3.83,1.47,3.06,3.31,1.09,5.86-1.22,1.59-1.8,2.37-3.91.9C96.07,318.23,82.16,307.62,67,298.35Z" transform="translate(-16.73 -5.8)"/><path class="cls-3" d="M109.58,336.52c-.08,2.49-2,3.65-4.89,2.62-9.52-3.33-16.6-10.25-24.09-16.48-6.48-5.39-12.58-11.24-18.77-17-.61-.57-2.59-1.09-1.14-2.44,1-.94,2.16-2.46,4.13-1,4.36,3.26,9,6.18,13.3,9.5,8,6.12,15.74,12.47,23.7,18.6a59.35,59.35,0,0,0,6.38,3.76C108.9,334.52,109.86,334.73,109.58,336.52Z" transform="translate(-16.73 -5.8)"/><path class="cls-3" d="M336.47,168.07c8.19,1,16.29,1.64,24.42,1.89,1.23,0,1.7.41,1.68,1.74-.07,6,0,12.07,0,19.05C353.7,182.44,345.24,175.15,336.47,168.07Z" transform="translate(-16.73 -5.8)"/><path class="cls-3" d="M171.43,26.58c1-.08,1.22-.13,1.46-.12,4.84.14,10.37-1.13,14.31.82s8,4.91,11.88,7.49c6.2,4.06,12.22,8.46,19,11.54,2.92,1.32,1.81,3.52,1.82,6.07C204.12,43,187.58,35.79,171.43,26.58Z" transform="translate(-16.73 -5.8)"/><path class="cls-3" d="M298.72,107c-14-6.21-26.16-15.12-39.32-22.81,3.31-1.8,6.3-3.39,9.25-5.06a1.48,1.48,0,0,1,2.2.41c8.18,10.07,17.89,18.54,27.94,26.66C298.83,106.25,298.77,106.42,298.72,107Z" transform="translate(-16.73 -5.8)"/><path class="cls-4" d="M198.56,27.9c7.63-.39,15.21.43,22.69-1.09,1.6-.33,1.93.32,1.63,1.79-.65,3.15-1.19,6.32-1.77,9.48-.25,1.37-.7,1.94-2.19,1.05C212.27,35.18,205.44,31.55,198.56,27.9Z" transform="translate(-16.73 -5.8)"/><path class="cls-4" d="M169.38,354.57c5.09,8.39,11.79,14.73,19.75,20.95-5.18.08-9.57.58-13-3.23a14.6,14.6,0,0,0-2.34-1.84C166,364.64,166,364.64,169.38,354.57Z" transform="translate(-16.73 -5.8)"/><path class="cls-5" d="M50.08,241.17c-4.78,0-8.7.16-12.51,1.19-1.53.41-2-.17-2-1.63.05-3.68,0-7.36,0-11.59Z" transform="translate(-16.73 -5.8)"/><path class="cls-6" d="M163.11,374.53c1.45-4.34,1.45-4.34,6.14,0Z" transform="translate(-16.73 -5.8)"/><path class="cls-7" d="M159.36,262.79l-.65.59a35.25,35.25,0,0,1-6.84-5.05l.78-.75Z" transform="translate(-16.73 -5.8)"/></svg>