<svg id="Camada_3" data-name="Camada 3" xmlns="http://www.w3.org/2000/svg" viewBox="0 0 384.15 384.11"><defs><style>.cls-1,.cls-2{fill:#fff;}.cls-1{stroke:#f07960;stroke-miterlimit:10;}</style></defs><path class="cls-1" d="M.5,176.34c1.7-4,1.46-8.41,2.06-12.62C14,84.27,76,19,154.86,4.21,210.92-6.27,262.11,5.47,308,39.55c2.78,2.05,4.83,4.43,4.29,8.09-.85,5.88-7.25,8.29-12.35,4.52a189.73,189.73,0,0,0-26.74-17c-39-19.75-80-25.51-122.21-14.57C83.56,38.05,38.85,80.92,21.43,148.24c-17.16,66.44,1,124.75,50.2,173,.92.91,1.7,2.15,3.18,2.42A120.23,120.23,0,0,1,197.2,229.56c53.09,2.3,99.47,39.37,111.9,94,1.49.09,2.1-1.2,2.95-2,31.36-29.39,50-65.33,55.2-108,4.79-39.38-3-76.25-22.69-110.65-.5-.86-1-1.7-1.48-2.59-2-4-.92-8,2.59-10.09A7.41,7.41,0,0,1,356,93a172.1,172.1,0,0,1,12.25,23.86c41.52,97.4-3.79,210-101.19,251.53a192.06,192.06,0,0,1-20.43,7.37,177,177,0,0,1-39.2,7.21c-.68,0-1.54-.31-1.91.67H177.09c-8.77-.73-17.53-1.46-26.15-3.39A193.48,193.48,0,0,1,19.29,277.14,186.26,186.26,0,0,1,1.37,218.45c-.46-3.53-.18-7.15-.87-10.68Z" transform="translate(0 0)"/><path class="cls-2" d="M259.43,147.43a67.36,67.36,0,1,1-134.72-.75c.16-37,30.58-67,67.71-66.88A67.44,67.44,0,0,1,259.43,147.43Z" transform="translate(0 0)"/><path class="cls-2" d="M329.8,61.87a7.47,7.47,0,1,1-7.54,7.4v-.18A7.57,7.57,0,0,1,329.8,61.87Z" transform="translate(0 0)"/></svg>