<svg id="Camada_3" data-name="Camada 3" xmlns="http://www.w3.org/2000/svg" viewBox="0 0 391.27 276.29"><defs><style>.cls-1{fill:none;stroke:#f07960;stroke-miterlimit:10;stroke-width:8px;}</style></defs><path class="cls-1" d="M390.29,308.17c-1.12.66-.91,2-1.35,2.93-3.36,7.56-9.08,11.76-17.36,12-6.48.22-13,.11-19.46.05-7.83-.07-13.57-3.74-17.19-10.58a3.59,3.59,0,0,0-3.63-2.32A36.43,36.43,0,0,0,316.36,313c-18,7.48-37,9.66-56.29,10.26-15.24.47-30.13-.86-44.34-6.79-3.67-1.53-7.25-3.27-10.86-4.9-4.71,25.28-34.77,32.73-51,13.94-14.4,15.61-34.21,12.38-44.83-.19-4.17,4.73-9.13,8.36-15.34,9.79-10.84,2.5-20.27-.22-27.93-8.31a3.89,3.89,0,0,0-4.48-1.27q-19.53,5-39.1,9.85c-9.85,2.44-17.13-4.81-14.72-14.71,3.21-13.18,6.64-26.31,9.8-39.5,1.59-6.62,6.19-11,10.87-15.28,2.32-2.12,2.82-3.89,1.81-7-5-15.63-2.69-30.32,8-42.78q42-48.76,84.72-96.95c16.49-18.58,40.89-24.13,64.1-15.35,2,.76,3.08.35,4.48-1.05q14.49-14.64,29.12-29.12c7.91-7.87,17-7.85,25,.07,8.13,8.1,16.27,16.2,24.33,24.38,7.41,7.51,7.33,16.56-.17,24.1q-10.15,10.23-20.38,20.38c-1,1-2,1.78,0,3C273.45,160,298.46,173,325.91,180.65c.24.06.49.08.73.15,4.31,1.36,7.62,1.65,10.48-3.45,3.09-5.52,9.11-7.46,15.45-7.54,5.73-.07,11.48-.05,17.22,0,10.42.08,16.92,5,19.95,15.13.06.17.37.27.55.41Z" transform="translate(-3.02 -63.7)"/><path class="cls-1" d="M151.8,239.13a19.24,19.24,0,0,0,2.63-1.88q40.53-40.47,81-81.05c2.06-2.08,3.33-2.3,5.83-.77,23.61,14.47,48.12,27.1,74.63,35.5A76.63,76.63,0,0,0,330,194.36c2.23.27,2.77,1.21,2.77,3.39q-.12,48.48,0,97c0,2.61-.85,3-3.16,2.91-6.46-.34-12.52,1.23-18.51,3.69-18,7.37-36.89,9.14-56.08,9.11A102.05,102.05,0,0,1,223.69,306a47,47,0,0,1-15.85-8.15c-5.76-4.77-12.35-6.61-19.75-6.57-23.59.11-47.18.06-70.77,0-10.78,0-19-6.39-20.64-15.82-2.11-12.24,6.78-22.49,19.75-22.53q40.44-.1,80.88,0a93.74,93.74,0,0,0,18.61-1.55A91.64,91.64,0,0,0,232,246.52c4.1-1.64,5.82-5.07,4.51-8.59s-5-4.94-9.36-3.21a78,78,0,0,1-30.33,5.43c-13.6-.17-27.21-.05-40.81-.05H152.4Z" transform="translate(-3.02 -63.7)"/><path class="cls-1" d="M122.39,240.1c-9.4-.48-18.37.59-26.2,6.59A31.22,31.22,0,0,0,86,283.78c.85,2,.77,3.21-.85,4.78q-9.56,9.24-18.8,18.78c-1.44,1.47-2.24,1.65-3.79.07-9-9.16-18-18.3-27.26-27.25-2.39-2.31-.36-3.08.8-4.24q40.08-40.11,80.18-80.19,43-43,86-86.06c2.23-2.25,3.27-2.15,5.4,0,8.41,8.69,17,17.22,25.65,25.68,1.86,1.82,2.3,2.78.17,4.9q-49.08,48.82-98,97.88a6,6,0,0,1-4.91,2C127.89,240,125.14,240.1,122.39,240.1Z" transform="translate(-3.02 -63.7)"/><path class="cls-1" d="M377.53,246.75q0,27.71,0,55.4c0,6.16-2.15,8.27-8.34,8.29H353.84c-6.18,0-8.34-2.14-8.34-8.32q0-51.46,0-102.94c0-3-.05-6,0-9,.1-5,2.37-7.48,7.25-7.58q8.79-.18,17.59,0c4.91.1,7.17,2.55,7.18,7.6Q377.57,218.49,377.53,246.75Z" transform="translate(-3.02 -63.7)"/><path class="cls-1" d="M178.73,114.5,41.19,252.24a32,32,0,0,1,6.92-28.52Q89.87,176,131.65,128.26C144,114.22,161,109.46,178.73,114.5Z" transform="translate(-3.02 -63.7)"/><path class="cls-1" d="M262.33,110a3.77,3.77,0,0,1-1.55,2.86c-4.75,4.75-9.54,9.47-14.22,14.3-1.34,1.38-2.1,1.42-3.51,0q-13.63-13.83-27.47-27.46c-1.24-1.23-1.41-1.89-.06-3.19,4.93-4.75,9.76-9.61,14.55-14.51,2-2,3.7-1.93,5.68.07q12.48,12.61,25.06,25.12C261.62,108,262.41,108.76,262.33,110Z" transform="translate(-3.02 -63.7)"/><path class="cls-1" d="M131.89,304.1c4.35,0,8.7.06,13.05,0,1.88,0,2.57.48,2.59,2.5a16.08,16.08,0,1,1-32.14-.19c.06-1.79.54-2.35,2.33-2.31C122.44,304.17,127.16,304.1,131.89,304.1Z" transform="translate(-3.02 -63.7)"/><path class="cls-1" d="M176.18,323.19a16,16,0,0,1-16-16.95c.08-2,.85-2.19,2.46-2.17q13.64.15,27.26.14c1.49,0,2.16.28,2.26,2A16.07,16.07,0,0,1,176.18,323.19Z" transform="translate(-3.02 -63.7)"/><path class="cls-1" d="M51.08,315l-31,7.78c2.71-10.77,5.28-21,7.77-30.94C35.57,299.49,43.28,307.19,51.08,315Z" transform="translate(-3.02 -63.7)"/><path class="cls-1" d="M102.72,305.22c0,7.94-2.81,13.51-9.56,16.57-6,2.7-11.59,1.63-16.75-2.36-1.74-1.35-2-2.29-.22-4C82,309.84,87.72,304.1,93.34,298.3c1.41-1.45,2.38-1.67,4-.3C99.82,300.19,104.46,300.83,102.72,305.22Z" transform="translate(-3.02 -63.7)"/></svg>