<svg id="Camada_3" data-name="Camada 3" xmlns="http://www.w3.org/2000/svg" viewBox="0 0 356.78 354.14"><defs><style>.cls-1{fill:#fff;stroke:#f07960;stroke-miterlimit:10;stroke-width:6px;}</style></defs><path class="cls-1" d="M387.25,166.86c-1.32-3-.92-5.93,0-8.9Z" transform="translate(-33.49 -20.5)"/><path class="cls-1" d="M387.25,132c-.79-2.88-.49-5.87-.6-8.78a207.69,207.69,0,0,0-10.87-57.62c-6.33-19-19.45-30.65-39.24-34.61-11.81-2.36-23.77-2.58-35.73-2.54-3.28,0-6.56.6-9.88.62q-19.5.11-38.93-1.27-16.69-1.18-33.4-2.36c-11.82-.82-23.64-1.34-35.47-1.83-5.69-.24-11.38.32-17.07.54a162.88,162.88,0,0,0-38.12,5.76C112,34.37,97.64,41.74,85.88,53.74c-10.8,11-18.41,24.1-24.41,38.1C50.58,117.27,44.41,144,40,171.24a267.31,267.31,0,0,0-3.28,37.08c-.33,15.05-.38,30.09.77,45.08a233.48,233.48,0,0,0,8.09,44.71C51.92,321,63.29,340.86,82,355.9c9.93,8,21.37,12.76,34.49,11.68a47.46,47.46,0,0,1,10.86.61,304.36,304.36,0,0,0,58.59,3.13c17.52-.88,35-1.52,52.53-2.89,14.7-1.16,29.23-3.17,43.46-7.15,7.22-2,14.09-5.24,21.74-5.8a122.36,122.36,0,0,0,16.17-2.81c21.6-4.56,36.43-17.3,45.43-37.3,5.53-12.3,8.42-25.3,10.58-38.49,2.77-16.88,5-33.84,6.92-50.84,1.75-15.16,3.82-30.29,4-45.61,0-3.12-.33-6.36.56-9.46v-4.11a23.37,23.37,0,0,1,0-8.9Q387.25,145,387.25,132Zm-110.54-.46c.39,4.34,1.69,8.5.41,13.08-1.37,4.89,1.83,8.81,7.12,9a269.23,269.23,0,0,0,32.14-.14c6.38-.49,6.33-.76,5.89,5.41a325.24,325.24,0,0,0-.63,34.2c.1,2.92-.83,3.63-3.52,3.72-10.83.39-21.65,1-32.47,1.48-7.2.33-9.94,5-6.43,11.28a3.05,3.05,0,0,1,.38,2.55c-3.74,12.87-3.28,26.17-3.91,39.35a566.11,566.11,0,0,0,.66,64c.21,3.25-.48,4.47-4,4.71-19.45,1.31-38.85,3.24-58.23,5.34-1.54.17-2.28.07-2.16-1.81,1.05-15.87-1.76-31.61-1.65-47.47.11-17.33-.34-34.66,2.23-51.88a4.81,4.81,0,0,0,.08-1.36c-.59-4.14-1.43-8,1-12.21,1.7-2.89-1.53-6.84-5.64-8.43-6.39-2.47-13.1-2.92-19.84-2.85q-8.72.09-17.43.66c-1.9.12-2.44-.34-2.76-2.25a108.69,108.69,0,0,1,.16-36.39c.3-1.79,1.11-2.09,2.7-2.2,8.53-.57,17.06-1.26,25.58-1.92,5.14-.4,6.75-2.37,7.4-7.47.62-4.82,2.9-9.3,3.54-14.17,3.64-27.66,21.91-44.21,44.3-57.11,20.37-11.74,42.68-14.31,65.78-11.53,2.38.29,3.28,1.09,3.56,3.68,1.31,12.11,2.95,24.18,4.51,36.59-10.2-.46-20.29.48-30.38,1.35-4.19.36-8.42.58-12.56,1.3-4.83.84-7.44,4.35-7.15,9.25C275.75,123.34,276.35,127.4,276.71,131.49Z" transform="translate(-33.49 -20.5)"/><path class="cls-1" d="M344.67,301.4c2.6-8.73,5.2-17.46,7.87-26.45C353.68,279.16,348.9,296,344.67,301.4Z" transform="translate(-33.49 -20.5)"/><path class="cls-1" d="M65.42,154.3A132,132,0,0,1,71.18,132c-.5,8.2-3,16-5,23.84C64.83,155.87,65.34,155,65.42,154.3Z" transform="translate(-33.49 -20.5)"/><path class="cls-1" d="M319.37,214.26c5.41-.36,7.05,5.17,3.79,11.93C322,222.13,323.38,217.44,319.37,214.26Z" transform="translate(-33.49 -20.5)"/><path class="cls-1" d="M116.17,307.42c-3.4-2.58-7.48-4.51-9.15-9.57C112.43,299.32,113.48,304.17,116.17,307.42Z" transform="translate(-33.49 -20.5)"/><path class="cls-1" d="M159.18,120.75l8.69-11.18C167.43,114.34,162.24,121,159.18,120.75Z" transform="translate(-33.49 -20.5)"/><path class="cls-1" d="M149.7,92.49c-2.09-2.85-1.24-4.32,1.78-5.06a46.06,46.06,0,0,0,4.88-1.86A44.49,44.49,0,0,1,149.7,92.49Z" transform="translate(-33.49 -20.5)"/><path class="cls-1" d="M192.77,220.39c2.31-.88,3.4-.53,2.81,2.11-.65,2.86-1.16,5.74-1.83,9.09C193,227.56,194.3,223.86,192.77,220.39Z" transform="translate(-33.49 -20.5)"/><path class="cls-1" d="M65.42,154.3c.22.54.06,1.26.75,1.57-.69,3.18-1.37,6.36-2.06,9.54-.63.18-.93,0-.69-.68C64,161.24,64.24,157.68,65.42,154.3Z" transform="translate(-33.49 -20.5)"/><path class="cls-1" d="M63.42,164.74l.69.68-1.41,6.46A12.51,12.51,0,0,1,63.42,164.74Z" transform="translate(-33.49 -20.5)"/></svg>