<?xml version="1.0" encoding="utf-8"?>
<!-- Generator: Adobe Illustrator 24.1.1, SVG Export Plug-In . SVG Version: 6.00 Build 0)  -->
<svg version="1.1" id="Camada_1" xmlns="http://www.w3.org/2000/svg" xmlns:xlink="http://www.w3.org/1999/xlink" x="0px" y="0px"
	 viewBox="0 0 400 400" style="enable-background:new 0 0 400 400;" xml:space="preserve">
<g>
	<g>
		<path d="M129.07,321.44c43.64,6.62,88.36-8.79,131.46,2.43c4.06,1.06,9.1-2.94,7.38-7.38c-7.76-20.04-1.81-41.46,0.57-61.96
			c1.22-10.51,1.15-20.72-0.35-31.19c-1.66-11.59-4.33-22.95-3.6-34.74c0.17-2.79-2.02-4.9-4.4-5.79
			c-19.17-7.12-40.03-6.11-60.14-6.01c-21.6,0.12-43.2,0.23-64.8,0.35c-5.25,0.03-7.85,6.52-4.24,10.24
			c7.33,7.58,10.01,18.43,11.3,28.62c1.48,11.73,0.82,23.74-1.28,35.34c-4.27,23.58-13.56,45.9-22.99,67.8
			c-3.02,7.02,7.31,13.14,10.36,6.06c10.55-24.48,21.23-49.49,25.08-76.06c3.31-22.84,3.18-52.51-13.98-70.25
			c-1.41,3.41-2.83,6.83-4.24,10.24c20.95-0.11,41.89-0.22,62.84-0.33c19.72-0.11,40.11-1.42,58.91,5.57
			c-1.47-1.93-2.94-3.86-4.4-5.79c-0.72,11.55,1.64,22.86,3.46,34.2c1.8,11.24,1.68,22.23,0.28,33.5
			c-2.62,21.07-7.9,42.8,0.07,63.39c2.46-2.46,4.92-4.92,7.38-7.38c-43.44-11.3-87.71,4.21-131.46-2.43
			C124.71,308.72,121.45,320.28,129.07,321.44L129.07,321.44z"/>
	</g>
</g>
<g>
	<g>
		<path d="M105.37,239.69c17.99-27.96,35.26-56.39,51.71-85.29c13.86-24.34,29.58-54.5,15.17-82.1c-3.45,2.02-6.91,4.04-10.36,6.06
			c11.36,15.25,22.72,30.5,34.08,45.75c11.06,14.85,21.63,30.29,33.46,44.54c10.97,13.21,24.53,19.56,41.45,21.42
			c18.51,2.03,37.56,1.21,56.03-0.72c7.6-0.79,7.69-12.8,0-12c-17.17,1.79-34.59,2.4-51.82,1.11c-7.79-0.59-15.9-1.84-22.85-5.61
			c-6.7-3.64-11.85-9.41-16.49-15.34c-21.8-27.88-42.37-56.81-63.51-85.19c-4.53-6.08-14.02-0.95-10.36,6.06
			c13.21,25.3-6.62,55.15-18.98,76.65c-15.3,26.61-31.29,52.82-47.9,78.63C90.82,240.14,101.2,246.17,105.37,239.69L105.37,239.69z"
			/>
	</g>
</g>
<g>
	<g>
		<path d="M166.79,211.22c-0.34,2.05-0.29,3.95,0.87,5.77c1.07,1.68,2.69,2.89,4.6,3.47c3.31,1,7.39-0.23,9.04-3.45
			c0.73-1.44,1.04-3.03,0.6-4.62c-0.38-1.39-1.46-2.9-2.76-3.59c-1.39-0.74-3.08-1.1-4.62-0.6c-1.44,0.47-2.88,1.37-3.59,2.76
			c-0.04,0.08-0.08,0.16-0.13,0.24c0.31-0.4,0.63-0.81,0.94-1.21c-0.08,0.11-0.16,0.19-0.26,0.28c0.4-0.31,0.81-0.63,1.21-0.94
			c-0.11,0.08-0.2,0.13-0.32,0.19c0.48-0.2,0.96-0.4,1.43-0.6c-0.16,0.06-0.32,0.1-0.49,0.13c0.53-0.07,1.06-0.14,1.6-0.21
			c-0.18,0.01-0.35,0.01-0.53-0.01c0.53,0.07,1.06,0.14,1.6,0.21c-0.23-0.04-0.44-0.09-0.65-0.18c0.48,0.2,0.96,0.4,1.43,0.6
			c-0.21-0.09-0.39-0.2-0.57-0.34c0.4,0.31,0.81,0.63,1.21,0.94c-0.1-0.09-0.19-0.17-0.27-0.27c0.31,0.4,0.63,0.81,0.94,1.21
			c-0.1-0.14-0.18-0.27-0.25-0.43c0.2,0.48,0.4,0.96,0.6,1.43c-0.03-0.08-0.05-0.16-0.07-0.24c0.07,0.53,0.14,1.06,0.21,1.6
			c-0.02-0.14-0.02-0.25-0.01-0.39c-0.07,0.53-0.14,1.06-0.21,1.6c0.01-0.05,0.02-0.09,0.02-0.14c0.27-1.64,0.26-3.14-0.6-4.62
			c-0.73-1.24-2.16-2.43-3.59-2.76c-1.54-0.35-3.26-0.27-4.62,0.6C168.31,208.43,167.04,209.71,166.79,211.22L166.79,211.22z"/>
	</g>
</g>
<g>
	<g>
		<path d="M170.47,215.55c3.62,8.22,4.24,17.26,2.17,25.95c-1.13,4.72,2.88,8.19,7.38,7.38c5.69-1.02,11.38-2.04,17.07-3.05
			c4.7-0.84,9.32-1.49,12.56-5.35c3.11-3.7,4.8-8.99,6.79-13.34c1.98-4.34,3.78-8.79,1.85-13.49c-3.34-8.13-13.38-9.05-20.97-9.38
			c-11.02-0.48-22.1,1.09-32.64,4.3c-7.37,2.25-4.23,13.83,3.19,11.57c7.2-2.19,14.52-3.6,22.05-3.89
			c3.39-0.13,6.79-0.06,10.18,0.19c1.25,0.09,6.2,0.18,7.01,1.7c0.62,1.18-2.26,5.63-2.97,7.15c-1.22,2.64-2.13,6.66-4.78,7.95
			c-2.98,1.45-7.88,1.44-11.13,2.02c-3.79,0.68-7.59,1.36-11.38,2.04c2.46,2.46,4.92,4.92,7.38,7.38c2.88-12.05,1.6-23.9-3.38-35.19
			C177.72,202.44,167.38,208.54,170.47,215.55L170.47,215.55z"/>
	</g>
</g>
</svg>
