<?xml version="1.0" encoding="utf-8"?>
<!-- Generator: Adobe Illustrator 24.1.1, SVG Export Plug-In . SVG Version: 6.00 Build 0)  -->
<svg version="1.1" id="Camada_1" xmlns="http://www.w3.org/2000/svg" xmlns:xlink="http://www.w3.org/1999/xlink" x="0px" y="0px"
	 viewBox="0 0 400 400" style="enable-background:new 0 0 400 400;" xml:space="preserve">
<g>
	<g>
		<path d="M72.36,311.62c26.86-27.38,51.71-56.66,74.35-87.61c10.5-14.35,20.58-29.9,35.52-40.08c14.89-10.14,32.34-15.6,47.55-25.2
			c6.51-4.11,0.5-14.5-6.06-10.36c-15.44,9.75-33.23,15.22-48.25,25.68c-14.91,10.37-25.46,25.05-35.98,39.58
			c-22.93,31.69-48.23,61.59-75.62,89.51C58.47,308.66,66.94,317.15,72.36,311.62L72.36,311.62z"/>
	</g>
</g>
<g>
	<g>
		<path d="M232.71,89.75c-10.73,18.89-17.16,42.26-14.16,64.06c1.21,8.82,4.85,17.8,12.82,22.58c9.51,5.71,21.25,3.16,30.54-1.63
			c17.65-9.1,31.06-26.15,37.59-44.68c3.34-9.48,5.92-20.88,0.92-30.23c-4.19-7.83-12.37-13.16-20.64-15.87
			c-17.19-5.64-36.58,0.42-49.89,11.95c-15.01,13.01-20.82,34-18.99,53.3c0.99,10.45,3.78,20.47,8.16,29.99
			c3.92,8.51,9.58,17.34,18.24,21.65c10.2,5.07,20.87,1.51,29.94-4.2c10.19-6.42,19.87-13.81,29.33-21.26
			c16.02-12.63,32.1-28.3,32.89-50.03c0.33-8.94-2.27-18.1-8.11-24.98c-6.92-8.16-17.69-11.66-27.53-14.88
			c-21.65-7.08-45.72-10.27-65.94,2.53c-9.19,5.82-16.8,13.76-23.65,22.13c-6.76,8.26-13.4,16.9-17.91,26.64
			c-4.57,9.89-6.8,20.36-5.43,31.25c1.43,11.41,6.14,22.05,11.64,32.05c9.33,16.98,21.55,38.02,44.11,34.98
			c12.22-1.64,22.9-9.06,33.29-15.18c10-5.9,20.08-11.69,29.98-17.76c16.36-10.03,33.03-21.75,42.96-38.61
			c5.12-8.69,8.34-18.83,8.23-28.97c-0.12-11.44-4.94-21.44-11.66-30.45c-12.66-16.95-30.81-35.28-52.25-39.94
			c-22.37-4.87-43.69,6.67-59.6,21.51c-8.36,7.79-16.02,16.52-23.22,25.38c-6.89,8.48-13.32,17.42-17.74,27.47
			c-4.07,9.27-6.27,19.14-5.47,29.29c0.6,7.65,12.61,7.71,12,0c-1.41-17.81,7.9-33.52,18.64-46.98
			c11.24-14.08,23.91-29.24,39.67-38.38c7.82-4.53,16.68-7.57,25.79-7.44c9.25,0.13,17.65,4.07,25.16,9.21
			c7.73,5.29,14.68,11.91,20.87,18.92c6.02,6.81,12.34,14.62,14.74,23.56c4.42,16.45-4.84,32.91-16.17,44.17
			c-11.61,11.54-25.96,19.77-39.96,28.02c-9.14,5.39-18.26,10.82-27.42,16.17c-7.95,4.64-17.71,10.47-27.25,7.69
			c-7.42-2.16-12.43-9.05-16.41-15.25c-4.84-7.54-9.45-15.42-13.05-23.63c-3.69-8.4-6.15-17.63-5.16-26.85
			c0.94-8.79,4.96-16.92,9.68-24.26c9.09-14.16,21.2-29.48,36.53-37.12c17.7-8.82,38.51-3.23,56.1,2.91c7.8,2.72,16.04,5.9,20,13.7
			c3.31,6.52,3.15,14.47,1.13,21.35c-4.97,16.93-21.64,28.71-35.06,38.76c-7.71,5.77-15.61,12.08-24.19,16.5
			c-8.21,4.23-15.31,2.48-21-4.66c-10.16-12.72-14.36-31.7-13-47.65c1.33-15.57,9.29-29.66,23.1-37.3
			c11.7-6.47,27.43-7.98,38.63,0.41c7.53,5.64,7.37,12.93,5.17,21.39c-2.05,7.9-5.52,15.29-10.12,22.02
			c-4.55,6.65-10.42,12.66-17.05,17.24c-6.3,4.36-15.85,9.89-23.72,6.46c-6.66-2.9-8.4-11.42-8.78-17.92
			c-0.53-9.06,0.49-18.26,2.64-27.07c2.24-9.16,5.74-17.81,10.39-26C246.89,89.08,236.53,83.03,232.71,89.75L232.71,89.75z"/>
	</g>
</g>
</svg>
