<svg id="Camada_3" data-name="Camada 3" xmlns="http://www.w3.org/2000/svg" viewBox="0 0 383.49 321.06"><defs><style>.cls-1{fill:#060606;}.cls-2{fill:#fcfcfc;}</style></defs><path class="cls-1" d="M7.08,325a156,156,0,0,1,36-3.05c2.58,0,3.12-.73,2.83-3.16-3.76-31.31-4.09-62.75-3.63-94.23s2.46-63.11,4.15-94.65c1.46-27.42,2.83-54.85,3.33-82.31l.06-3.37c0-2.44.89-4.23,3.68-4.12s3.17,1.93,3.12,4.17C56.21,61.5,56,78.73,55.38,96,53.21,157.45,48.7,218.88,50,280.48c.27,12.6,1,25.19,1.48,37.79.1,2.64.77,3.71,3.81,3.85,16.95.81,33.88,2.22,50.84,2.91,29,1.19,57.92,0,86.87-.42,40.58-.58,81.15-1.44,121.7.56,23.81,1.17,47.6,2.73,71.41,4.09,2.05.12,4.33.12,4.48,2.81s-2.3,2.92-4.2,3.35c-8.81,2-17.65,1.18-26.42-.09-22.05-3.21-44.26-3.82-66.47-4.23-45.45-.85-90.87,1.33-136.31,1.68-27.36.21-54.67-.52-81.93-3-6.83-.63-13.69-.93-20.53-1.54-2.15-.19-2.6.49-2.26,2.47.29,1.71.25,3.48.37,5.22s-.59,2.62-2.3,2.73a2.11,2.11,0,0,1-2.5-2.12c-.07-.62-.25-1.22-.33-1.84-.93-6.71-.93-6.58-7.85-6.89-9.5-.43-19-.12-28.45.32-1.43.07-2.87-.07-4.3-.11Z" transform="translate(-7.08 -40.11)"/><path class="cls-1" d="M265.62,243.53a352.48,352.48,0,0,1,6.12-67.37c.94-4.77-.59-9.68.55-14.49a26.28,26.28,0,0,0,.42-3.34c.33-3.2,2-4.59,5.28-4.17,5.32.66,10.66,1.15,16,1.71a65.89,65.89,0,0,0,15.31-.18c1-.12,2.14.13,2.52-1.11.75-2.41,2.5-3.19,4.65-2.45,2.43.83,1.67,3.13,1.47,4.87-2.6,22.49-3.06,45.06-3,67.67.08,22.23.57,44.45,0,66.68-.09,3.61-.5,7.24-.33,10.85.19,4.06-2.13,6.49-5.41,6.9-11.48,1.46-23,2.79-34.37-1.09-.44-.15-1-.58-1.28-.45-3.43,1.42-3.38-1-3.67-3.19A507.31,507.31,0,0,1,265.62,243.53Zm9.13,19.24c-.5,8.65-.46,8.62,4.63,14.68,8.27,9.85,18.3,17.45,30.06,23.77-.65-7.7-1.26-15-1.86-22.26a1.31,1.31,0,0,0-1-1.36c-8.53-2.54-13.56-9.4-19.07-15.62-4.09-4.61-8-9.39-12.45-14.67a51.78,51.78,0,0,1-.33,5.92c-.67,3.81.65,6.59,3.51,9.15,4.28,3.82,8.13,8.1,12.33,12,4.84,4.5,9.82,8.84,14.83,13.15.83.71,2.87.51,2,2.31-.77,1.62-2.45,1-3.63.43a32.22,32.22,0,0,1-7.61-5.36C288.63,278.25,281.92,270.73,274.75,262.77Zm29.49-20.18c0-5.2,0-10.14,0-15.09a3.37,3.37,0,0,0-1.4-2.86c-7-5.65-13.86-11.37-20.81-17-1.48-1.21-3.1-2.25-5-3.63-.21,3.93-.36,7.14-.56,10.34a2.84,2.84,0,0,0,.83,2.37C286.06,225.46,293.69,235.43,304.24,242.59ZM307,273.76c-.1-1.88-.17-3.12-.23-4.36-.25-4.72.32-9.88-6.24-11.07-.56-.1-1-.68-1.52-1.06-7.79-6-13.57-13.9-20.42-20.78-.9-.9-1.56-2.14-3.33-2.74v6.32c0,1.82-.27,3.51,1.25,5.19,6.2,6.83,12.26,13.8,19,20.15A46.68,46.68,0,0,0,307,273.76Zm-3.16-67.28c.85-3.75.52-7.36.75-10.93a1.86,1.86,0,0,0-1.11-1.75c-8.35-5.44-14.47-13.2-21-20.48-.85-.94-1.47-2.18-3-2.8-.35,3.76-.65,7.19-1,10.62a2.57,2.57,0,0,0,.61,2.06C286.44,191.76,294,200.14,303.86,206.48Zm-25.75-20.56c-.32,5.37-.51,9.72-.87,14.06-.15,1.8,1.08,2.34,2.2,3.09,5.94,3.93,11.39,8.48,16.93,12.93,2.27,1.82,4.65,3.52,7.35,5.55.5-5.88,1.75-11.27-5.07-13.81-1.43-.53-2.53-2-3.72-3.08C289,199.2,283.93,192.85,278.11,185.92Zm-2.18,33.66c0,2.89,0,4.74,0,6.59s-.25,3.3,1.28,4.78c5.18,5.05,10.1,10.37,15.3,15.41a95.91,95.91,0,0,0,13,10.18c.65-5.3-.29-9.3-5.42-11.55-1.94-.86-3.45-2.85-5-4.49C288.91,233.83,282.8,227.1,275.93,219.58Zm29-27.86c.32-2.43.55-4.49.87-6.54a2,2,0,0,0-1-2.16c-7-4.83-11.7-11.83-17.24-18-1.5-1.67-3-2.95-5.27-2.85-1.21.06-2.65-1.35-3.56.59-.76,1.59-.21,2.71,1,3.94,6.19,6.49,12.26,13.1,18.45,19.58A27.49,27.49,0,0,0,304.93,191.72Zm-12.17,105c.72,3.77.28,4.27-2.59,3.79a11.65,11.65,0,0,1-4.64-2.21c-4-2.76-7.35-6.19-11.46-10.27,0,4.88,0,8.93,0,13,0,1,.14,1.54,1.42,1.54,8.14,0,16.28.74,25-.32Zm13.71-118c2-7.28-4.48-9.55-7.1-13.74-2-3.21-6.25-1.4-10.37-2C294.9,168.84,299.77,174.42,306.47,178.75Zm-31.63,98.43c-.26,2.51-1.48,5.3.12,7.23A35,35,0,0,0,291.28,296C285.78,289.75,280.1,283.74,274.84,277.18Zm33.31-107.9c.44-2.2,1.81-4.31.5-5.59-1.1-1.08-3.34-.36-5.52.11Z" transform="translate(-7.08 -40.11)"/><path class="cls-1" d="M370.27,44.09c3.42-.05,4.85,2.35,3.45,5.74-3.2,7.69-6.54,15.33-9.81,23-3.08,7.21-6.13,14.43-9.23,21.62-1.77,4.12-3.47,4.64-7.05,2.2-1-.66-1.66-1.44-2.62.11-1.13,1.82-2.93,1.77-4.61.89-1.88-1-2.11-2.73-1.37-4.52.51-1.23.46-2-.77-2.74s-1.77-.24-2.5.54c-13,13.67-28.89,23.7-43.81,35-16.46,12.42-31.51,26.51-47.24,39.8-15.08,12.74-30.83,24.48-48.42,33.64-3.73,1.94-6,1.72-9-1.34-13.25-13.44-25.05-28.17-37.64-42.19-5.68-6.32-11.47-12.51-17.68-18.32-1.22-1.15-2-2-3.39,0-8.46,12.36-19.83,22.06-30.1,32.77Q83.28,186,68.08,201.82a18.23,18.23,0,0,1-2.17,2.05c-1.17.86-2.16.19-2.94-.68-1.12-1.24-.33-2.31.49-3.3,4.51-5.5,8.73-11.28,13.62-16.41,16.18-17,31-35.3,47.87-51.62,3.62-3.48,3.56-3,7.55-.27,20.43,14,34.69,34,50.94,52,2.59,2.87,5.39,5.56,7.91,8.49,1.59,1.84,2.75,2,4.92.6,19.14-12.14,36.51-26.55,53.59-41.34,18.78-16.25,38-31.93,57.18-47.75,6.93-5.73,13.37-12,19.88-18.21,1.95-1.86,1.21-2.58-.36-3.87-3.46-2.86-6.86-5.81-10.16-8.86s-2.88-5.89,1.1-7.46c17.13-6.76,34.47-13,51.23-20.65A9.66,9.66,0,0,1,370.27,44.09Z" transform="translate(-7.08 -40.11)"/><path class="cls-1" d="M120.78,306.41c-1,2.15-2.09,3.24-4,2.66s-2-2.28-2-4c-.24-15.36.23-30.7,1.13-46,1.61-27.29,4-54.53,4.85-81.86.08-2.47-.24-5.39,3.85-4.55a.88.88,0,0,0,.77-.43c1.15-4.37,4.43-3.51,7.56-3.16,5.45.61,10.91,1.19,16.12,3.05a14.39,14.39,0,0,1,7.83,6c1.26,2.1,2.76,4.19.39,6.74-1,1.1-.27,2.9-.09,4.35,2.7,21.79,2,43.6.23,65.4-1.3,16.17-3,32.3-4.14,48.48-.45,6.6-3.17,8.65-9,8.47-5.25-.15-10.48-.5-15.69-1C125.65,310.35,122.56,310,120.78,306.41Zm5.64-130.74c4.07,10.49,4.3,21,3.37,31.41-2.1,23.6-4.67,47.16-6.95,70.75-.84,8.65-1.42,17.33-2.14,26.26a16.46,16.46,0,0,1,6.43-.7c5.83.86,11.71.45,17.56.72,2.66.12,3.58-.34,3.44-3.36-.54-12.09-.8-24.18-.61-36.3.41-26.08,1.68-52.14,2.82-78.19.18-4.15-1.65-5.95-4.83-7.25C139.53,176.59,133.11,176.85,126.42,175.67Z" transform="translate(-7.08 -40.11)"/><path class="cls-1" d="M219.15,269.13c-.11-23.68,0-41.39-2-59-.62-5.4,1-6.69,6.49-7.76a149,149,0,0,1,16.7-1.82,5.51,5.51,0,0,0,3.72-1.29c2.79-2.58,5-1.71,5.48,2.19.54,4.7.87,9.45,1,14.18.24,12.11-.47,24.2-1.06,36.28a155.66,155.66,0,0,0,.1,20.94c.76,8.75,0,17.46-1.07,26.11-1.1,8.92-8,14.69-17,14.73a12,12,0,0,1-11.77-11.21C218.83,289.36,219.23,276.26,219.15,269.13Zm5.55-61.58-.91-.06.34.86c3.52,30.23,2.74,60.49.53,90.76-.44,6,1.11,7.66,7.23,7.11,5.67-.5,9.79-4.75,9.27-10.58-.9-10-.12-19.92.4-29.87,1-18.44-.31-36.92,1-55.35.16-2.28-.82-2.32-2.55-2.29C234.88,208.23,229.76,208.71,224.7,207.55Z" transform="translate(-7.08 -40.11)"/><path class="cls-1" d="M69.21,221.05c.16-4.45,1-5.32,4.89-4.46C80.49,218,87,218,93.46,218.19c1.21,0,2.41.32,2.94-1.44A2.68,2.68,0,0,1,99.72,215c1.82.35,2.22,1.8,2.39,3.36a79.08,79.08,0,0,1-.89,21.62c-3.48,21.45-6.28,42.94-5.52,64.74.09,2.54-.21,3.61-3.71,3.65-8.71.09-17.07-3.21-25.79-2.09a7.74,7.74,0,0,0-2.51.45c-3.27,1.53-4.71.62-4.87-3.13A209.9,209.9,0,0,1,59,279.28c1.38-18.53,2.91-37,4.4-55.57C63.7,219.37,65.44,218.51,69.21,221.05Zm-.47-.16a28.31,28.31,0,0,1,1.84,15.49C69,248.14,68.07,260,67.3,271.78c-.57,8.71-1.24,17.42-1.85,26.14-.09,1.29-.66,2.8,1.81,2.5a69.58,69.58,0,0,1,20.87.7c1.76.32,2.21-.25,2-1.92a79.59,79.59,0,0,1-.76-11.95c-.08-19.66,3.11-39,5-58.52.25-2.53-.15-3.3-2.71-3.29A54,54,0,0,1,68.74,220.89Z" transform="translate(-7.08 -40.11)"/><path class="cls-1" d="M164.39,272.69c0-9.94-.1-18.95,2.34-27.7.54-1.94.88-5.35,2.93-5.11,3.57.42,6.53-1.51,9.94-1.33a102.69,102.69,0,0,0,11.23-.19c2.35-.12,5,.89,6.33-2.7.63-1.74,4.16-.68,4.89,1.71a31.29,31.29,0,0,1,1.8,8.74c.24,20.65-.74,41.16-8.54,60.68-2.15,5.37-3.39,6.06-9.06,5.48-4.19-.42-8.3-1.57-12.62-.61-2.29.5-5.21-3.11-6.12-6.86A118.45,118.45,0,0,1,164.39,272.69Zm9.14-28.08c-.18,3.55-.16,6.92-.56,10.25a220.85,220.85,0,0,0-.22,47.74c.1,1-.16,2.51,1.73,2,4.24-1.22,8.48-.4,12.59.37,2.62.5,3-.35,3.67-2.46,5.5-17.93,5.53-36.33,5-54.8-.06-2.12-1.2-2-2.63-2C186.71,245.24,180.2,246.21,173.53,244.61Z" transform="translate(-7.08 -40.11)"/><path class="cls-1" d="M285.73,350.24c.13-2.74.3-5.49,1.61-8,.88-1.68,2.24-2.92,4.22-2s1.59,2.63,1,4.22a37.22,37.22,0,0,0-2.28,7.86c-.23,1.52-.68,3.28-2.52,3.16-2.23-.13-2-2.14-2-3.75Z" transform="translate(-7.08 -40.11)"/><path class="cls-1" d="M128.76,358.89c.64-3.89,1.17-7.18,1.73-10.46.31-1.8,1.44-3.12,3.22-2.92s2.38,2,2.3,3.69c-.19,3.76-1.64,7.18-3.25,10.51A2.19,2.19,0,0,1,130,361,1.73,1.73,0,0,1,128.76,358.89Z" transform="translate(-7.08 -40.11)"/><path class="cls-1" d="M81.36,341.92c-.25,3.35-1.85,6.45-3.43,9.54a1.87,1.87,0,0,1-2.51,1A2,2,0,0,1,74.23,350c.67-3,1.2-6.1,2.07-9.07.44-1.49.54-3.94,3-3.52C81.53,337.83,81.17,340,81.36,341.92Z" transform="translate(-7.08 -40.11)"/><path class="cls-1" d="M233.17,347a20.82,20.82,0,0,1-1.85,6.59c-.53,1.08-1.13,2-2.48,1.71-1.63-.36-1.55-1.67-1.42-2.95.22-2.33.35-4.68.7-7,.25-1.64.32-3.83,2.7-3.72,2.15.1,1.79,2.33,2.32,3.74A5.31,5.31,0,0,1,233.17,347Z" transform="translate(-7.08 -40.11)"/><path class="cls-1" d="M189.66,350.79c-.87,2.21-.48,4.75.19,7.32.17.64.39,1.62-.54,1.87a2.47,2.47,0,0,1-1.64-.57c-3.15-2.08-4.37-7.89-2.29-10.63.82-1.08,1.86-1.79,3.19-1.21C189.74,348.08,190,349.22,189.66,350.79Z" transform="translate(-7.08 -40.11)"/><path class="cls-2" d="M224.13,208.35l-.34-.86.91.06Z" transform="translate(-7.08 -40.11)"/></svg>