<svg id="Camada_2" data-name="Camada 2" xmlns="http://www.w3.org/2000/svg" viewBox="0 0 339.39 258.09"><defs><style>.cls-1{fill:none;stroke:#f07960;stroke-miterlimit:10;stroke-width:16px;}</style></defs><path class="cls-1" d="M41.5,164.5" transform="translate(-16.61 -80.98)"/><path class="cls-1" d="M42.5,251.5" transform="translate(-16.61 -80.98)"/><path class="cls-1" d="M52.5,96.5c51-20,228.36,9.58,275-6,2.06-.69,8.46-3,13,0,9.32,6.23,2.47,34.28,2,66-.3,19.91,7.49,29.21,5,45-6,38-4,80-13,113-19,17-206,23-300,3" transform="translate(-16.61 -80.98)"/><path class="cls-1" d="M47.5,97.5c51-20,228.36,9.58,275-6,2.06-.69,8.46-3,13,0,9.32,6.23,2.47,34.28,2,66-.3,19.91,7.49,29.21,5,45-6,38-4,80-13,113-19,17-206,23-300,3-13.16-2.8,4-15.9,8-66,3.39-41.95,5.08-62.93-1-87-7.65-30.29-4.18-51.58,6.5-65.5C46.06,96,44.61,98.63,47.5,97.5Z" transform="translate(-16.61 -80.98)"/><path class="cls-1" d="M52.5,96.5c8.59,8.45,26.16,29.18,42,47,29.46,33.15,36.35,46.24,58,59,11.52,6.79,30.57,18,53,14,6.35-1.14,17.15-4.25,42-27,13.28-12.16,75.5-69.78,94-96" transform="translate(-16.61 -80.98)"/><path class="cls-1" d="M341.5,93.5" transform="translate(-16.61 -80.98)"/><path class="cls-1" d="M334.5,314.5c-12.49-21.86-40.15-51.57-65-77-10.87-11.13-38-34-38-34" transform="translate(-16.61 -80.98)"/><path class="cls-1" d="M33.5,310.5c18.29-13.47,51.74-34.53,72-53,20.68-18.86,68.69-62.11,45-46" transform="translate(-16.61 -80.98)"/></svg>