<svg id="Camada_3" data-name="Camada 3" xmlns="http://www.w3.org/2000/svg" viewBox="0 0 377 392.54"><defs><style>.cls-1{fill:#fff;}</style></defs><path class="cls-1" d="M197,0c-1.79,1.13-3.58,1.4-5.37,0Z" transform="translate(0 0.05)"/><path class="cls-1" d="M213.87.66h-2.28c-.28-.12-.39-.25-.31-.4s.17-.23.26-.23h2.3c.24.14.33.28.26.43S214,.66,213.87.66Z" transform="translate(0 0.05)"/><path class="cls-1" d="M211.54,0V.63c-.67.15-1.28.14-1.59-.63Z" transform="translate(0 0.05)"/><path class="cls-1" d="M213.87.66a3.64,3.64,0,0,1,0-.66h1.54C215.2,1,214.51.74,213.87.66Z" transform="translate(0 0.05)"/><path class="cls-1" d="M376.54,181.76a191.7,191.7,0,0,0-12.67-57C348.82,86,326.68,52.46,292.31,28A163.8,163.8,0,0,0,241.76,3.71c-7.91-2.27-16-2.8-24.08-3.76h-2.3c-.5.53-1.15.36-1.75.4h-1.88c-.6,0-1.25.13-1.75-.4H197a7.87,7.87,0,0,1-5.37,0h-.77a1.48,1.48,0,0,1-1,.39c-15,0-29.43,3.17-43.79,6.89A194,194,0,0,0,17.57,115.35C8,136.48,1.89,158.54.42,181.68c-1.65,26,1.48,51.49,10.46,76.05,12.53,34.27,31.87,64,59.2,88.52,15.44,13.83,32.4,25.25,51.49,33.45,23.21,10,47.18,14,72.27,9.36,2-.35,3.45-.22,4.61,1.64s2.94,1.93,4.78,1.69a30.24,30.24,0,0,0,6-1.38c21.21-7.28,41.77-16.05,61.18-27.29,21.55-12.47,41.33-27.18,58.12-45.79a192.91,192.91,0,0,0,37.86-62C375.33,231.93,378.22,207.09,376.54,181.76ZM297,168.48c-.13,18.5.11,37-1,55.5a207.72,207.72,0,0,1-6.6,41.83c-5.35,19.61-18.49,31.12-37.9,35.9-18,4.42-36.26,4-54.54,3.53a558.17,558.17,0,0,1-64.18-5.07c-17-2.43-32-8.93-41.62-24.12-6.27-9.84-8.35-20.94-9.34-32.34-1.64-19.05.65-38,2-56.93,1.41-20.11,3.62-40.19.57-60.32a7.1,7.1,0,0,1,1.48-5c6.27-9.92,14.75-16.88,26.17-20.44a145.81,145.81,0,0,1,35-5.94c14.42-.83,28.87-1.22,43.3-1.81,16.88-.84,33.75-1,50.57,1,11,1.29,22.09,2.79,31.76,8.92,12.57,8,18.7,20.06,21.78,34.14C296.63,147.59,297,158,297,168.48Z" transform="translate(0 0.05)"/><path class="cls-1" d="M62.84,111.79c.21-1.71,1.1-2.35,2.63-2.86C65.37,110.69,64.72,111.52,62.84,111.79Z" transform="translate(0 0.05)"/><path class="cls-1" d="M30.33,188.48c0,1.76.68,3.18-1,4.33A3.46,3.46,0,0,1,30.33,188.48Z" transform="translate(0 0.05)"/><path class="cls-1" d="M73.71,250.53c.83,1.19,1.57,2.42.85,4.25C72.67,253.45,73.72,251.93,73.71,250.53Z" transform="translate(0 0.05)"/><path class="cls-1" d="M163.19,379.23l5.81,1c-2.66.44-4.28.74-5.8-.41-.26-.12-.35-.25-.27-.38S163.1,379.23,163.19,379.23Z" transform="translate(0 0.05)"/><path class="cls-1" d="M195.62,72.93a8.45,8.45,0,0,1,4.57.18c-1.32.72-2.67.45-4,.53C195.49,73.84,195.3,73.6,195.62,72.93Z" transform="translate(0 0.05)"/><path class="cls-1" d="M10.55,206c-1.3-.84-1.93-1.87-1.15-3.51Z" transform="translate(0 0.05)"/><path class="cls-1" d="M159.47,379.69l-4.61-1c2-.41,3.36-.8,4.51.54Z" transform="translate(0 0.05)"/><path class="cls-1" d="M195.62,72.93l.61.71a3,3,0,0,1-3.29.43A4.08,4.08,0,0,1,195.62,72.93Z" transform="translate(0 0.05)"/><path class="cls-1" d="M9.84,212.84a9,9,0,0,1,.46-4.66l.35,4.73a.53.53,0,0,1-.75,0Z" transform="translate(0 0.05)"/><path class="cls-1" d="M9.84,212.84l.81.07a1.14,1.14,0,0,1,.42,1.55c-.12.21-.69.44-.82.34C9.6,214.29,9.75,213.55,9.84,212.84Z" transform="translate(0 0.05)"/><path class="cls-1" d="M56.21,280.47c-1.11-1.18-1.62-2.05-.92-3.29C56.11,278.09,57,278.93,56.21,280.47Z" transform="translate(0 0.05)"/><path class="cls-1" d="M159.47,379.69a2.11,2.11,0,0,0-.1-.5h3.82v.59Z" transform="translate(0 0.05)"/><path class="cls-1" d="M97.4,199.09c0-5.74.06-11.48,0-17.22,0-3.59,1.58-5.41,5.16-5.76,8-.78,15.87-2.78,24-1.61.92.14,1.94-.47,2.93-.65,3.68-.69,4.71.23,4.72,4a15.81,15.81,0,0,0,1.15,6c1.83,3.76.45,7,0,10.42-4,30.45,15.52,55.69,46,59.34,13.13,1.58,25.87.3,37.65-5.78,18.1-9.33,26.15-24.93,26.52-44.88a74.26,74.26,0,0,0-2.12-18.18c-1.29-5.64,1.31-8.63,6.84-7.68a46.69,46.69,0,0,0,16.75-.4c2.08-.39,4.85-.11,4.87,1.71.05,5,4.29,8,4.72,13,1.42,16,3.25,32,2.4,48.09a119.16,119.16,0,0,1-4.15,25.59c-4.62,16.69-16.43,24.21-32.65,26.79-15.54,2.48-31.09,1.47-46.65.59-12.12-.69-24.25-1.34-36.36-2.15a102.19,102.19,0,0,1-24-4.68c-16.76-5.38-25.83-17.7-31.16-33.7-4-12.1-5.51-24.57-6.24-37.18-.3-5.21,0-10.45,0-15.69Z" transform="translate(0 0.05)"/><path class="cls-1" d="M221.66,204.81c-.61,18.08-17.79,23.59-31.92,23.06-12.91-.49-23.62-5.63-29.27-18-6.09-13.37-1.28-32.6,10.88-40.85,6.5-4.4,14.39-7.58,22.42-6.72,11.32,1.22,18.71,8.79,23.68,18.49C220.73,187.15,222.19,194.16,221.66,204.81Z" transform="translate(0 0.05)"/><path class="cls-1" d="M234.17,135.1c.29-5.21.56-10.43.87-15.64.19-3,.08-5.32,5-5,3.33.25,7.15-1.89,11-2.14,5-.33,9.94.24,14.91.25a4.14,4.14,0,0,1,4.43,3.84,2.9,2.9,0,0,1,0,.51c-.08,11.4,3,22.76.34,34.22-.8,3.49-2.38,5.4-6,5.85-3.41.43-6.77,1.23-10.18,1.64-3.62.44-7.09.07-10.1-2.43-1.75-1.46-4.09-1.21-6.2-1.49-3.08-.42-4.46-2.09-4.44-5.13V135.06Z" transform="translate(0 0.05)"/><path class="cls-1" d="M252,278.66c-2.43,1.54-4.58,2.63-7.29,2C247.14,280.32,248.35,276.24,252,278.66Z" transform="translate(0 0.05)"/><path class="cls-1" d="M253.2,250.74c.48,1.36.92,2.7-.65,3.88C252.81,253.11,253,251.93,253.2,250.74Z" transform="translate(0 0.05)"/><path class="cls-1" d="M128,187.64a3.52,3.52,0,0,1-.77,2.89,2,2,0,0,1-.08-2.83l.08-.08a.48.48,0,0,1,.69-.06Z" transform="translate(0 0.05)"/><path class="cls-1" d="M128,187.64h-.78c.19-.8,0-2.34,1-2.08S128.34,186.93,128,187.64Z" transform="translate(0 0.05)"/><path class="cls-1" d="M193.14,219.44l4.22-1.33C196.15,220.06,195,219.93,193.14,219.44Z" transform="translate(0 0.05)"/></svg>