<svg id="Camada_3" data-name="Camada 3" xmlns="http://www.w3.org/2000/svg" viewBox="0 0 384.13 384.1"><defs><style>.cls-1,.cls-2{fill:#f07960;}.cls-1{stroke:#f07960;stroke-miterlimit:10;}</style></defs><path class="cls-1" d="M4.07,184.66c1.7-4,1.46-8.41,2.06-12.62C17.57,92.59,79.61,27.28,158.43,12.53,214.49,2.05,265.68,13.79,311.6,47.87c2.78,2.05,4.83,4.43,4.29,8.09-.85,5.88-7.25,8.29-12.35,4.52a189.13,189.13,0,0,0-26.74-17c-39-19.75-80-25.51-122.21-14.57C87.13,46.37,42.42,89.24,25,156.56,7.84,223,26,281.31,75.2,329.54c.92.91,1.7,2.15,3.18,2.42a120.22,120.22,0,0,1,122.39-94.08c53.09,2.3,99.47,39.37,111.9,94,1.49.09,2.1-1.2,2.95-2,31.36-29.39,50-65.33,55.2-108,4.79-39.38-3-76.25-22.69-110.65-.5-.86-1-1.7-1.48-2.59-2-4-.92-8,2.59-10.09s7.9-1.16,10.33,2.74a172.1,172.1,0,0,1,12.25,23.86A191.71,191.71,0,0,1,250.2,384.05a177,177,0,0,1-39.2,7.21c-.68,0-1.54-.31-1.91.67H180.66c-8.77-.73-17.53-1.46-26.15-3.39A193.48,193.48,0,0,1,22.86,285.46,186.18,186.18,0,0,1,4.94,226.77c-.46-3.53-.18-7.15-.87-10.68Z" transform="translate(-3.57 -8.32)"/><path class="cls-2" d="M263,155.75A67.34,67.34,0,1,1,128.28,155c.16-37,30.58-67,67.71-66.88A67.44,67.44,0,0,1,263,155.75Z" transform="translate(-3.57 -8.32)"/><path class="cls-2" d="M333.37,70.19a7.47,7.47,0,1,1-7.54,7.22A7.57,7.57,0,0,1,333.37,70.19Z" transform="translate(-3.57 -8.32)"/></svg>